<svg width="49" height="49" viewBox="0 0 49 49" fill="none" xmlns="http://www.w3.org/2000/svg">
<g clip-path="url(#clip0_2076_1395)">
<path d="M1.73111 27.5768C-0.233286 25.6124 -0.233286 22.4276 1.73111 20.4632L5.28796 16.9062L8.8448 20.4632C10.8092 22.4276 10.8092 25.6124 8.8448 27.5768C6.88042 29.5412 3.6955 29.5412 1.73111 27.5768Z" fill="url(#paint0_linear_2076_1395)"/>
<path d="M11.2077 37.0612C9.24328 35.0968 9.24328 31.9118 11.2077 29.9476L14.7645 26.3906L27.8062 39.4324C29.7706 41.3968 29.7706 44.5817 27.8062 46.5461C25.8418 48.5105 22.657 48.5105 20.6926 46.5461L11.2077 37.0612Z" fill="url(#paint1_linear_2076_1395)"/>
<path d="M14.7778 7.42188L7.66406 14.5356L33.7476 40.6192L40.8614 33.5055L14.7778 7.42188Z" fill="url(#paint2_linear_2076_1395)"/>
<path d="M20.7077 8.60652C18.7433 6.64214 18.7433 3.45722 20.7077 1.49283C22.6721 -0.471567 25.8569 -0.471567 27.8213 1.49283L37.3062 10.9778C39.2706 12.9422 39.2706 16.127 37.3062 18.0914L33.7494 21.6483L20.7077 8.60652Z" fill="url(#paint3_linear_2076_1395)"/>
<path d="M39.6764 20.4626C37.712 22.427 37.712 25.6118 39.6764 27.5762L43.2334 31.1331L46.7902 27.5762C48.7546 25.6118 48.7546 22.427 46.7902 20.4626C44.8258 18.4982 41.6408 18.4982 39.6764 20.4626Z" fill="url(#paint4_linear_2076_1395)"/>
</g>
<defs>
<linearGradient id="paint0_linear_2076_1395" x1="36.2578" y1="0.0199991" x2="23.8621" y2="47.9176" gradientUnits="userSpaceOnUse">
<stop stop-color="#FF8066"/>
<stop offset="0.5" stop-color="#E666FF"/>
<stop offset="1" stop-color="#66B3FF"/>
</linearGradient>
<linearGradient id="paint1_linear_2076_1395" x1="36.2494" y1="0.0194244" x2="23.8537" y2="47.917" gradientUnits="userSpaceOnUse">
<stop stop-color="#FF8066"/>
<stop offset="0.5" stop-color="#E666FF"/>
<stop offset="1" stop-color="#66B3FF"/>
</linearGradient>
<linearGradient id="paint2_linear_2076_1395" x1="36.2627" y1="0.0204991" x2="23.867" y2="47.9181" gradientUnits="userSpaceOnUse">
<stop stop-color="#FF8066"/>
<stop offset="0.5" stop-color="#E666FF"/>
<stop offset="1" stop-color="#66B3FF"/>
</linearGradient>
<linearGradient id="paint3_linear_2076_1395" x1="36.2645" y1="0.0195314" x2="23.8688" y2="47.9171" gradientUnits="userSpaceOnUse">
<stop stop-color="#FF8066"/>
<stop offset="0.5" stop-color="#E666FF"/>
<stop offset="1" stop-color="#66B3FF"/>
</linearGradient>
<linearGradient id="paint4_linear_2076_1395" x1="36.2635" y1="0.0193588" x2="23.8678" y2="47.9169" gradientUnits="userSpaceOnUse">
<stop stop-color="#FF8066"/>
<stop offset="0.5" stop-color="#E666FF"/>
<stop offset="1" stop-color="#66B3FF"/>
</linearGradient>
<clipPath id="clip0_2076_1395">
<rect width="48" height="48" fill="white" transform="translate(0.257812 0.0195312)"/>
</clipPath>
</defs>
</svg>
