<svg width="300" height="438" viewBox="0 0 300 438" fill="none" xmlns="http://www.w3.org/2000/svg">
<g clip-path="url(#clip0_2076_1331)">
<rect width="300" height="438" rx="30" fill="#222222"/>
<g filter="url(#filter0_f_2076_1331)">
<path d="M194.5 318C176 105.5 156.5 208 144.5 132.5C21.5 32 -144.834 196.976 -220.095 69.9169C-295.356 -57.1422 23.4639 -57.3175 242.705 -130.399C580.561 -243.018 460.5 413.5 194.5 318Z" fill="#3414DA"/>
</g>
<g filter="url(#filter1_f_2076_1331)">
<path d="M459.518 -23.7478C435.659 94.073 401.345 158.673 282.633 209.209C62.2894 174.25 274.207 -139.81 258.032 -221.382C241.857 -302.953 159.552 101.105 273.837 78.4426C388.122 55.7803 443.343 -105.319 459.518 -23.7478Z" fill="#E732ED"/>
</g>
<g filter="url(#filter2_f_2076_1331)">
<path d="M323.47 -217.228C431.526 -380.604 231.337 -82.5538 351.496 -3.08037C471.655 76.393 669.28 -221.592 561.223 -58.2167C435.077 21.2702 364.361 241.146 244.202 161.673C124.043 82.1994 215.413 -53.8531 323.47 -217.228Z" fill="#77E2FE"/>
</g>
<g filter="url(#filter3_f_2076_1331)">
<path d="M463.815 41.4915C456.847 176.452 421.62 45.5815 342.406 41.4915C263.192 37.4016 247.346 156.034 254.314 21.0731C292.891 -70.8122 280.589 -68.9087 359.803 -64.8188C439.017 -60.7289 470.783 -93.4692 463.815 41.4915Z" fill="white"/>
</g>
</g>
<defs>
<filter id="filter0_f_2076_1331" x="-331.352" y="-243.439" width="880.695" height="670.968" filterUnits="userSpaceOnUse" color-interpolation-filters="sRGB">
<feFlood flood-opacity="0" result="BackgroundImageFix"/>
<feBlend mode="normal" in="SourceGraphic" in2="BackgroundImageFix" result="shape"/>
<feGaussianBlur stdDeviation="50" result="effect1_foregroundBlur_2076_1331"/>
</filter>
<filter id="filter1_f_2076_1331" x="81.8125" y="-332.274" width="477.703" height="641.483" filterUnits="userSpaceOnUse" color-interpolation-filters="sRGB">
<feFlood flood-opacity="0" result="BackgroundImageFix"/>
<feBlend mode="normal" in="SourceGraphic" in2="BackgroundImageFix" result="shape"/>
<feGaussianBlur stdDeviation="50" result="effect1_foregroundBlur_2076_1331"/>
</filter>
<filter id="filter2_f_2076_1331" x="87.3359" y="-365.406" width="605.109" height="644.121" filterUnits="userSpaceOnUse" color-interpolation-filters="sRGB">
<feFlood flood-opacity="0" result="BackgroundImageFix"/>
<feBlend mode="normal" in="SourceGraphic" in2="BackgroundImageFix" result="shape"/>
<feGaussianBlur stdDeviation="50" result="effect1_foregroundBlur_2076_1331"/>
</filter>
<filter id="filter3_f_2076_1331" x="172.836" y="-146.285" width="371.914" height="328.679" filterUnits="userSpaceOnUse" color-interpolation-filters="sRGB">
<feFlood flood-opacity="0" result="BackgroundImageFix"/>
<feBlend mode="normal" in="SourceGraphic" in2="BackgroundImageFix" result="shape"/>
<feGaussianBlur stdDeviation="40" result="effect1_foregroundBlur_2076_1331"/>
</filter>
<clipPath id="clip0_2076_1331">
<rect width="300" height="438" rx="30" fill="white"/>
</clipPath>
</defs>
</svg>