<svg width="15" height="12" viewBox="0 0 15 12" fill="none" xmlns="http://www.w3.org/2000/svg">
<path d="M11.9372 1.58709C11.0507 1.17231 10.1028 0.870865 9.11174 0.699219C8.99004 0.919264 8.84785 1.21523 8.74981 1.45067C7.69633 1.29224 6.65254 1.29224 5.61844 1.45067C5.52042 1.21523 5.375 0.919264 5.2522 0.699219C4.26012 0.870865 3.31111 1.17342 2.42459 1.58929C0.636461 4.29139 0.151729 6.92637 0.394095 9.52393C1.58008 10.4096 2.72943 10.9476 3.85939 11.2997C4.13839 10.9157 4.38721 10.5075 4.60157 10.0773C4.19332 9.92221 3.8023 9.73078 3.43284 9.50854C3.53086 9.43592 3.62673 9.36 3.71936 9.28188C5.97283 10.3359 8.42127 10.3359 10.6478 9.28188C10.7415 9.36 10.8374 9.43592 10.9343 9.50854C10.5638 9.73187 10.1717 9.9233 9.76345 10.0784C9.97781 10.5075 10.2256 10.9168 10.5056 11.3008C11.6367 10.9487 12.7871 10.4107 13.9731 9.52393C14.2575 6.51269 13.4873 3.90191 11.9372 1.58709ZM4.90857 7.92645C4.23211 7.92645 3.67735 7.29493 3.67735 6.52589C3.67735 5.75685 4.22026 5.12424 4.90857 5.12424C5.59691 5.12424 6.15164 5.75574 6.1398 6.52589C6.14087 7.29493 5.59691 7.92645 4.90857 7.92645ZM9.4586 7.92645C8.78214 7.92645 8.22738 7.29493 8.22738 6.52589C8.22738 5.75685 8.77027 5.12424 9.4586 5.12424C10.1469 5.12424 10.7017 5.75574 10.6898 6.52589C10.6898 7.29493 10.1469 7.92645 9.4586 7.92645Z" fill="white"/>
</svg>
