<svg width="2096" height="1352" viewBox="0 0 2096 1352" fill="none" xmlns="http://www.w3.org/2000/svg">
<g filter="url(#filter0_f_2076_3864)">
<path d="M1818.13 845.502C1494.74 800.325 1069.07 761.163 545.056 856.001L545.058 784.501C562.72 820.481 1482.54 465.5 1755.63 91.9999L1734.21 361.001L1818.13 845.502Z" fill="#3414DA"/>
<path d="M1818.13 845.502C1494.74 800.325 1069.07 761.163 545.056 856.001L545.058 784.501C562.72 820.481 1482.54 465.5 1755.63 91.9999L1734.21 361.001L1818.13 845.502Z" stroke="black" stroke-width="0.725492"/>
</g>
<g filter="url(#filter1_f_2076_3864)">
<path d="M1741.41 423.448C1594.57 523.144 1522.67 493.542 1077.72 766.76L1070.03 754.887C1072.95 759.392 1461.89 492.19 1691.23 299.155L1913.14 219.908L1741.41 423.448Z" fill="#F8FFA5"/>
<path d="M1741.41 423.448C1594.57 523.144 1522.67 493.542 1077.72 766.76L1070.03 754.887C1072.95 759.392 1461.89 492.19 1691.23 299.155L1913.14 219.908L1741.41 423.448Z" stroke="black" stroke-width="0.725492"/>
</g>
<g filter="url(#filter2_f_2076_3864)">
<path d="M1812.99 528.586C1648.34 566.366 1222.27 544.418 733.292 633.22L733.29 633.219C733.29 633.219 1470.62 397.933 1740.65 305.74L1803.26 358.617L1812.99 528.586Z" fill="#E732ED"/>
<path d="M1812.99 528.586C1648.34 566.366 1222.27 544.418 733.292 633.22L733.29 633.219C733.29 633.219 1470.62 397.933 1740.65 305.74L1803.26 358.617L1812.99 528.586Z" stroke="black" stroke-width="0.725492"/>
</g>
<g filter="url(#filter3_f_2076_3864)">
<path d="M1875.14 650.502C1553.52 608.916 1091.13 728 555.14 833.501L591.722 752.499C656.633 707.5 1718.63 464 1718.63 238.5L1747.13 285L1875.14 650.502Z" fill="url(#paint0_linear_2076_3864)"/>
<path d="M1875.14 650.502C1553.52 608.916 1091.13 728 555.14 833.501L591.722 752.499C656.633 707.5 1718.63 464 1718.63 238.5L1747.13 285L1875.14 650.502Z" stroke="black" stroke-width="0.725492"/>
</g>
<g filter="url(#filter4_f_2076_3864)">
<path d="M211.632 1235.5C201.623 1185.33 364.227 1008.28 630.963 884.13L559.375 780.731C567.599 806.447 333.778 922.883 106.906 798.076L211.632 1235.5Z" fill="#3414DA"/>
<path d="M211.632 1235.5C201.623 1185.33 364.227 1008.28 630.963 884.13L559.375 780.731C567.599 806.447 333.778 922.883 106.906 798.076L211.632 1235.5Z" stroke="black"/>
</g>
<g filter="url(#filter5_f_2076_3864)">
<path d="M254.021 1071.5C242.4 1016.29 347.791 967.061 613.355 839.248L589.426 764.429C598.507 792.821 314.469 872.684 81.6358 729.238L254.021 1071.5Z" fill="url(#paint1_linear_2076_3864)"/>
<path d="M254.021 1071.5C242.4 1016.29 347.791 967.061 613.355 839.248L589.426 764.429C598.507 792.821 314.469 872.684 81.6358 729.238L254.021 1071.5Z" stroke="black"/>
</g>
<g filter="url(#filter6_f_2076_3864)">
<ellipse cx="81.5359" cy="81.142" rx="81.5359" ry="81.142" transform="matrix(-0.411784 -0.911282 -0.911282 0.411784 630.672 859.104)" fill="#77E2FE"/>
</g>
<g filter="url(#filter7_f_2076_3864)">
<ellipse cx="31.9054" cy="31.7512" rx="31.9054" ry="31.7512" transform="matrix(-0.411784 -0.911282 -0.911282 0.411784 570.812 835.15)" fill="white"/>
</g>
<defs>
<filter id="filter0_f_2076_3864" x="454.695" y="0.751953" width="1453.88" height="945.684" filterUnits="userSpaceOnUse" color-interpolation-filters="sRGB">
<feFlood flood-opacity="0" result="BackgroundImageFix"/>
<feBlend mode="normal" in="SourceGraphic" in2="BackgroundImageFix" result="shape"/>
<feGaussianBlur stdDeviation="45" result="effect1_foregroundBlur_2076_3864"/>
</filter>
<filter id="filter1_f_2076_3864" x="888.354" y="37.7403" width="1207.3" height="910.887" filterUnits="userSpaceOnUse" color-interpolation-filters="sRGB">
<feFlood flood-opacity="0" result="BackgroundImageFix"/>
<feBlend mode="normal" in="SourceGraphic" in2="BackgroundImageFix" result="shape"/>
<feGaussianBlur stdDeviation="90.6865" result="effect1_foregroundBlur_2076_3864"/>
</filter>
<filter id="filter2_f_2076_3864" x="533.18" y="105.33" width="1480.2" height="728.256" filterUnits="userSpaceOnUse" color-interpolation-filters="sRGB">
<feFlood flood-opacity="0" result="BackgroundImageFix"/>
<feBlend mode="normal" in="SourceGraphic" in2="BackgroundImageFix" result="shape"/>
<feGaussianBlur stdDeviation="100" result="effect1_foregroundBlur_2076_3864"/>
</filter>
<filter id="filter3_f_2076_3864" x="354.523" y="37.2148" width="1721.16" height="996.777" filterUnits="userSpaceOnUse" color-interpolation-filters="sRGB">
<feFlood flood-opacity="0" result="BackgroundImageFix"/>
<feBlend mode="normal" in="SourceGraphic" in2="BackgroundImageFix" result="shape"/>
<feGaussianBlur stdDeviation="100" result="effect1_foregroundBlur_2076_3864"/>
</filter>
<filter id="filter4_f_2076_3864" x="6.15625" y="680.445" width="725.555" height="655.172" filterUnits="userSpaceOnUse" color-interpolation-filters="sRGB">
<feFlood flood-opacity="0" result="BackgroundImageFix"/>
<feBlend mode="normal" in="SourceGraphic" in2="BackgroundImageFix" result="shape"/>
<feGaussianBlur stdDeviation="50" result="effect1_foregroundBlur_2076_3864"/>
</filter>
<filter id="filter5_f_2076_3864" x="0.398438" y="647.887" width="693.562" height="503.842" filterUnits="userSpaceOnUse" color-interpolation-filters="sRGB">
<feFlood flood-opacity="0" result="BackgroundImageFix"/>
<feBlend mode="normal" in="SourceGraphic" in2="BackgroundImageFix" result="shape"/>
<feGaussianBlur stdDeviation="40" result="effect1_foregroundBlur_2076_3864"/>
</filter>
<filter id="filter6_f_2076_3864" x="386.777" y="681.58" width="272.751" height="273.269" filterUnits="userSpaceOnUse" color-interpolation-filters="sRGB">
<feFlood flood-opacity="0" result="BackgroundImageFix"/>
<feBlend mode="normal" in="SourceGraphic" in2="BackgroundImageFix" result="shape"/>
<feGaussianBlur stdDeviation="27.5725" result="effect1_foregroundBlur_2076_3864"/>
</filter>
<filter id="filter7_f_2076_3864" x="457.564" y="747.874" width="142.349" height="142.552" filterUnits="userSpaceOnUse" color-interpolation-filters="sRGB">
<feFlood flood-opacity="0" result="BackgroundImageFix"/>
<feBlend mode="normal" in="SourceGraphic" in2="BackgroundImageFix" result="shape"/>
<feGaussianBlur stdDeviation="19.6947" result="effect1_foregroundBlur_2076_3864"/>
</filter>
<linearGradient id="paint0_linear_2076_3864" x1="616.217" y1="708.68" x2="1939.87" y2="58.91" gradientUnits="userSpaceOnUse">
<stop stop-color="#77E2FE"/>
<stop offset="1" stop-color="#77E2FE"/>
</linearGradient>
<linearGradient id="paint1_linear_2076_3864" x1="607.378" y1="820.515" x2="-233.483" y2="1089.44" gradientUnits="userSpaceOnUse">
<stop stop-color="#77E2FE"/>
<stop offset="1" stop-color="#77E2FE" stop-opacity="0"/>
</linearGradient>
</defs>
</svg>
