<svg width="1790" height="500" viewBox="0 0 1790 500" fill="none" xmlns="http://www.w3.org/2000/svg">
<g filter="url(#filter0_f_1797_2122)">
<path d="M123.002 262.532C121.989 262.704 120.989 262.86 120 263C120.989 262.846 121.99 262.69 123.002 262.532C197.763 249.885 336.497 154 447 154C559 154 609 263 826.5 263C1044 263 1103.5 196 1174 175C1244.5 154 1420 263 1529 263C1616.2 263 1659 284 1669.5 294.5C1552.5 284 1300.9 263 1230.5 263C1142.5 263 946 347.5 865 337C784 326.5 524.5 231.5 468 224.5C423.26 218.957 221.338 247.248 123.002 262.532Z" fill="#77E2FE"/>
</g>
<g filter="url(#filter1_f_1797_2122)">
<path d="M107.003 191.722C105.99 191.559 104.989 191.411 104 191.277C104.99 191.424 105.991 191.572 107.003 191.722C181.788 203.757 320.566 295 431.106 295C543.142 295 618.43 202.5 836 202.5C1053.57 202.5 1224.48 236.017 1295 256C1365.52 275.983 1404.42 191.277 1513.45 191.277C1600.68 191.277 1643.5 171.294 1654 161.302C1536.96 171.294 1285.28 191.277 1214.86 191.277C1126.83 191.277 930.267 110.868 849.24 120.86C768.214 130.851 508.631 221.252 452.112 227.913C407.358 233.188 205.371 206.267 107.003 191.722Z" fill="#E732ED"/>
</g>
<g filter="url(#filter2_f_1797_2122)">
<path d="M121.941 262.706C121.289 262.811 120.642 262.908 120 263C120.642 262.899 121.289 262.802 121.941 262.706C196.445 250.798 335.972 154 447 154C559 154 621.5 212 839 212C1056.5 212 1105 175 1175.5 154C1246 133 1420 263 1529 263C1616.2 263 1659 284 1669.5 294.5C1552.5 284 1298.9 362 1228.5 362C1140.5 362 946 347.5 865 337C784 326.5 545 301.5 488.5 294.5C443.598 288.937 220.145 248.374 121.941 262.706Z" fill="#3414DA"/>
</g>
<g opacity="0.8" filter="url(#filter3_f_1797_2122)">
<path d="M123.062 229.381C122.029 229.206 121.008 229.046 120 228.903C121.005 229.06 122.026 229.219 123.062 229.381C197.837 242.069 336.526 337.903 447 337.903C559 337.903 645 276.5 862.5 276.5C1080 276.5 1128 356.5 1198.5 377.5C1269 398.5 1420 228.903 1529 228.903C1616.2 228.903 1659 207.903 1669.5 197.403C1552.5 207.903 1300.9 228.903 1230.5 228.903C1142.5 228.903 943.5 110.5 862.5 121C781.5 131.5 566 269.5 509.5 276.5C464.767 282.042 222.256 244.852 123.062 229.381Z" fill="#77E2FE"/>
</g>
<defs>
<filter id="filter0_f_1797_2122" x="20" y="54" width="1749.5" height="383.903" filterUnits="userSpaceOnUse" color-interpolation-filters="sRGB">
<feFlood flood-opacity="0" result="BackgroundImageFix"/>
<feBlend mode="normal" in="SourceGraphic" in2="BackgroundImageFix" result="shape"/>
<feGaussianBlur stdDeviation="50" result="effect1_foregroundBlur_1797_2122"/>
</filter>
<filter id="filter1_f_1797_2122" x="4" y="20" width="1750" height="375" filterUnits="userSpaceOnUse" color-interpolation-filters="sRGB">
<feFlood flood-opacity="0" result="BackgroundImageFix"/>
<feBlend mode="normal" in="SourceGraphic" in2="BackgroundImageFix" result="shape"/>
<feGaussianBlur stdDeviation="50" result="effect1_foregroundBlur_1797_2122"/>
</filter>
<filter id="filter2_f_1797_2122" x="20" y="51.7041" width="1749.5" height="410.296" filterUnits="userSpaceOnUse" color-interpolation-filters="sRGB">
<feFlood flood-opacity="0" result="BackgroundImageFix"/>
<feBlend mode="normal" in="SourceGraphic" in2="BackgroundImageFix" result="shape"/>
<feGaussianBlur stdDeviation="50" result="effect1_foregroundBlur_1797_2122"/>
</filter>
<filter id="filter3_f_1797_2122" x="0" y="0.34082" width="1789.5" height="498.96" filterUnits="userSpaceOnUse" color-interpolation-filters="sRGB">
<feFlood flood-opacity="0" result="BackgroundImageFix"/>
<feBlend mode="normal" in="SourceGraphic" in2="BackgroundImageFix" result="shape"/>
<feGaussianBlur stdDeviation="60" result="effect1_foregroundBlur_1797_2122"/>
</filter>
</defs>
</svg>
