<svg width="290" height="202" viewBox="0 0 290 202" fill="none" xmlns="http://www.w3.org/2000/svg">
<g clip-path="url(#clip0_3345_38754)">
<g opacity="0.02">
<rect x="16" y="16.0381" width="1" height="169" fill="white"/>
<rect x="80.25" y="16.0381" width="1" height="169" fill="white"/>
<rect x="144.5" y="16.0381" width="1" height="169" fill="white"/>
<rect x="208.75" y="16.0381" width="1" height="169" fill="white"/>
<rect x="273" y="16.0381" width="1" height="169" fill="white"/>
</g>
<g opacity="0.03">
<rect x="16" y="16.0381" width="258" height="1" fill="white"/>
<rect x="16" y="58.0381" width="258" height="1" fill="white"/>
<rect x="16" y="100.038" width="258" height="1" fill="white"/>
<rect x="16" y="142.038" width="258" height="1" fill="white"/>
<rect x="16" y="184.038" width="258" height="1" fill="white"/>
</g>
<path d="M47.6499 55.4808C34.3239 48.8702 25.884 27.386 17 25.7334V182.733H220V118.281L207.562 110.018H171.138C166.696 110.018 154.258 98.4492 150.26 98.4492C146.263 98.4492 119.166 98.4492 112.947 93.4913C106.729 88.5334 97.8446 76.965 93.8468 77.7913C89.849 78.6176 60.9759 62.0913 47.6499 55.4808Z" fill="url(#paint0_linear_3345_38754)"/>
<path d="M47.6499 55.4808C34.3239 48.8702 25.884 27.386 17 25.7334V182.733H220V118.281L207.562 110.018H171.138C166.696 110.018 154.258 98.4492 150.26 98.4492C146.263 98.4492 119.166 98.4492 112.947 93.4913C106.729 88.5334 97.8446 76.965 93.8468 77.7913C89.849 78.6176 60.9759 62.0913 47.6499 55.4808Z" fill="url(#paint1_radial_3345_38754)"/>
<path d="M17.3713 23.7682C16.2859 23.5631 15.2398 24.2767 15.0348 25.3621C14.8297 26.4474 15.5433 27.4936 16.6287 27.6986L17.3713 23.7682ZM208.069 111.683L206.951 113.341L208.069 111.683ZM16.6287 27.6986C18.1888 27.9934 20.0089 29.2566 22.2074 31.5899C24.3622 33.8769 26.5914 36.867 29.0601 40.1534C33.8708 46.5573 39.5884 54.1254 46.75 57.7338L48.5498 54.1616C42.3854 51.0557 37.22 44.3559 32.2583 37.7509C29.8408 34.5328 27.4614 31.3332 25.1187 28.8468C22.8196 26.4067 20.2533 24.3127 17.3713 23.7682L16.6287 27.6986ZM46.75 57.7338C53.4092 61.089 63.8445 66.9041 73.3161 71.8811C78.0146 74.35 82.4604 76.6034 85.9971 78.1906C87.7613 78.9824 89.3428 79.6282 90.639 80.052C91.2859 80.2636 91.9025 80.4334 92.46 80.5341C92.9745 80.6271 93.6266 80.6982 94.2577 80.5657L93.4359 76.6511C93.5673 76.6235 93.5254 76.6618 93.1712 76.5979C92.86 76.5416 92.4333 76.4303 91.8822 76.2501C90.782 75.8904 89.3479 75.3101 87.6348 74.5413C84.217 73.0074 79.862 70.8021 75.1768 68.3402C65.8809 63.4556 55.2167 57.5207 48.5498 54.1616L46.75 57.7338ZM94.2577 80.5657C94.2304 80.5715 94.3861 80.5334 94.8283 80.7073C95.2571 80.876 95.8081 81.1864 96.4835 81.6672C97.8361 82.63 99.42 84.0805 101.157 85.8C104.51 89.118 108.48 93.5104 111.689 96.1091L114.206 93.0005C111.197 90.5636 107.615 86.563 103.971 82.957C102.21 81.2144 100.435 79.5701 98.8032 78.4085C97.9864 77.827 97.1388 77.3178 96.2923 76.9849C95.4591 76.6572 94.4627 76.4355 93.4359 76.6511L94.2577 80.5657ZM111.689 96.1091C113.658 97.7039 116.958 98.7168 120.44 99.4259C124.031 100.157 128.218 100.637 132.281 100.955C140.415 101.591 148.255 101.591 150.26 101.591V97.5905C148.268 97.5905 140.561 97.5901 132.593 96.9672C128.605 96.6554 124.601 96.1912 121.238 95.5063C117.766 94.7991 115.346 93.9236 114.206 93.0005L111.689 96.1091ZM150.26 101.591C150.339 101.591 150.662 101.638 151.319 101.927C151.932 102.196 152.677 102.603 153.539 103.132C155.269 104.192 157.276 105.616 159.38 107.1C161.449 108.559 163.61 110.075 165.542 111.224C166.51 111.799 167.467 112.31 168.362 112.682C169.225 113.041 170.193 113.341 171.138 113.341V109.341C170.972 109.341 170.58 109.273 169.897 108.989C169.246 108.718 168.471 108.312 167.586 107.785C165.812 106.731 163.781 105.309 161.685 103.831C159.625 102.378 157.495 100.864 155.629 99.7212C154.694 99.1483 153.777 98.6373 152.927 98.2643C152.121 97.9101 151.182 97.5905 150.26 97.5905V101.591ZM171.138 113.341C171.145 113.341 171.152 113.341 171.159 113.341C171.165 113.341 171.172 113.341 171.18 113.341C171.187 113.341 171.194 113.341 171.201 113.341C171.208 113.341 171.216 113.341 171.223 113.341C171.23 113.341 171.238 113.341 171.245 113.341C171.253 113.341 171.26 113.341 171.268 113.341C171.275 113.341 171.283 113.341 171.291 113.341C171.299 113.341 171.307 113.341 171.314 113.341C171.322 113.341 171.33 113.341 171.338 113.341C171.346 113.341 171.354 113.341 171.363 113.341C171.371 113.341 171.379 113.341 171.387 113.341C171.396 113.341 171.404 113.341 171.412 113.341C171.421 113.341 171.429 113.341 171.438 113.341C171.446 113.341 171.455 113.341 171.464 113.341C171.472 113.341 171.481 113.341 171.49 113.341C171.499 113.341 171.508 113.341 171.517 113.341C171.526 113.341 171.535 113.341 171.544 113.341C171.553 113.341 171.562 113.341 171.571 113.341C171.58 113.341 171.59 113.341 171.599 113.341C171.608 113.341 171.618 113.341 171.627 113.341C171.637 113.341 171.646 113.341 171.656 113.341C171.665 113.341 171.675 113.341 171.685 113.341C171.694 113.341 171.704 113.341 171.714 113.341C171.724 113.341 171.734 113.341 171.744 113.341C171.754 113.341 171.764 113.341 171.774 113.341C171.784 113.341 171.794 113.341 171.805 113.341C171.815 113.341 171.825 113.341 171.835 113.341C171.846 113.341 171.856 113.341 171.867 113.341C171.877 113.341 171.888 113.341 171.898 113.341C171.909 113.341 171.92 113.341 171.93 113.341C171.941 113.341 171.952 113.341 171.963 113.341C171.974 113.341 171.984 113.341 171.995 113.341C172.006 113.341 172.017 113.341 172.029 113.341C172.04 113.341 172.051 113.341 172.062 113.341C172.073 113.341 172.085 113.341 172.096 113.341C172.107 113.341 172.119 113.341 172.13 113.341C172.142 113.341 172.153 113.341 172.165 113.341C172.176 113.341 172.188 113.341 172.2 113.341C172.211 113.341 172.223 113.341 172.235 113.341C172.247 113.341 172.259 113.341 172.271 113.341C172.283 113.341 172.295 113.341 172.307 113.341C172.319 113.341 172.331 113.341 172.343 113.341C172.355 113.341 172.368 113.341 172.38 113.341C172.392 113.341 172.405 113.341 172.417 113.341C172.43 113.341 172.442 113.341 172.455 113.341C172.467 113.341 172.48 113.341 172.492 113.341C172.505 113.341 172.518 113.341 172.531 113.341C172.543 113.341 172.556 113.341 172.569 113.341C172.582 113.341 172.595 113.341 172.608 113.341C172.621 113.341 172.634 113.341 172.647 113.341C172.66 113.341 172.674 113.341 172.687 113.341C172.7 113.341 172.713 113.341 172.727 113.341C172.74 113.341 172.754 113.341 172.767 113.341C172.781 113.341 172.794 113.341 172.808 113.341C172.821 113.341 172.835 113.341 172.849 113.341C172.862 113.341 172.876 113.341 172.89 113.341C172.904 113.341 172.918 113.341 172.932 113.341C172.945 113.341 172.959 113.341 172.974 113.341C172.988 113.341 173.002 113.341 173.016 113.341C173.03 113.341 173.044 113.341 173.059 113.341C173.073 113.341 173.087 113.341 173.102 113.341C173.116 113.341 173.13 113.341 173.145 113.341C173.159 113.341 173.174 113.341 173.188 113.341C173.203 113.341 173.218 113.341 173.232 113.341C173.247 113.341 173.262 113.341 173.277 113.341C173.292 113.341 173.306 113.341 173.321 113.341C173.336 113.341 173.351 113.341 173.366 113.341C173.381 113.341 173.397 113.341 173.412 113.341C173.427 113.341 173.442 113.341 173.457 113.341C173.473 113.341 173.488 113.341 173.503 113.341C173.519 113.341 173.534 113.341 173.549 113.341C173.565 113.341 173.58 113.341 173.596 113.341C173.612 113.341 173.627 113.341 173.643 113.341C173.659 113.341 173.674 113.341 173.69 113.341C173.706 113.341 173.722 113.341 173.738 113.341C173.754 113.341 173.77 113.341 173.786 113.341C173.802 113.341 173.818 113.341 173.834 113.341C173.85 113.341 173.866 113.341 173.882 113.341C173.898 113.341 173.915 113.341 173.931 113.341C173.947 113.341 173.964 113.341 173.98 113.341C173.997 113.341 174.013 113.341 174.03 113.341C174.046 113.341 174.063 113.341 174.079 113.341C174.096 113.341 174.113 113.341 174.129 113.341C174.146 113.341 174.163 113.341 174.18 113.341C174.196 113.341 174.213 113.341 174.23 113.341C174.247 113.341 174.264 113.341 174.281 113.341C174.298 113.341 174.315 113.341 174.332 113.341C174.35 113.341 174.367 113.341 174.384 113.341C174.401 113.341 174.419 113.341 174.436 113.341C174.453 113.341 174.471 113.341 174.488 113.341C174.505 113.341 174.523 113.341 174.54 113.341C174.558 113.341 174.576 113.341 174.593 113.341C174.611 113.341 174.628 113.341 174.646 113.341C174.664 113.341 174.682 113.341 174.699 113.341C174.717 113.341 174.735 113.341 174.753 113.341C174.771 113.341 174.789 113.341 174.807 113.341C174.825 113.341 174.843 113.341 174.861 113.341C174.879 113.341 174.897 113.341 174.916 113.341C174.934 113.341 174.952 113.341 174.97 113.341C174.989 113.341 175.007 113.341 175.025 113.341C175.044 113.341 175.062 113.341 175.081 113.341C175.099 113.341 175.118 113.341 175.136 113.341C175.155 113.341 175.174 113.341 175.192 113.341C175.211 113.341 175.23 113.341 175.248 113.341C175.267 113.341 175.286 113.341 175.305 113.341C175.324 113.341 175.343 113.341 175.362 113.341C175.381 113.341 175.4 113.341 175.419 113.341C175.438 113.341 175.457 113.341 175.476 113.341C175.495 113.341 175.514 113.341 175.533 113.341C175.553 113.341 175.572 113.341 175.591 113.341C175.611 113.341 175.63 113.341 175.649 113.341C175.669 113.341 175.688 113.341 175.708 113.341C175.727 113.341 175.747 113.341 175.766 113.341C175.786 113.341 175.806 113.341 175.825 113.341C175.845 113.341 175.865 113.341 175.884 113.341C175.904 113.341 175.924 113.341 175.944 113.341C175.964 113.341 175.984 113.341 176.004 113.341C176.024 113.341 176.044 113.341 176.064 113.341C176.084 113.341 176.104 113.341 176.124 113.341C176.144 113.341 176.164 113.341 176.184 113.341C176.204 113.341 176.225 113.341 176.245 113.341C176.265 113.341 176.286 113.341 176.306 113.341C176.326 113.341 176.347 113.341 176.367 113.341C176.388 113.341 176.408 113.341 176.429 113.341C176.449 113.341 176.47 113.341 176.49 113.341C176.511 113.341 176.532 113.341 176.552 113.341C176.573 113.341 176.594 113.341 176.615 113.341C176.636 113.341 176.656 113.341 176.677 113.341C176.698 113.341 176.719 113.341 176.74 113.341C176.761 113.341 176.782 113.341 176.803 113.341C176.824 113.341 176.845 113.341 176.866 113.341C176.887 113.341 176.909 113.341 176.93 113.341C176.951 113.341 176.972 113.341 176.993 113.341C177.015 113.341 177.036 113.341 177.057 113.341C177.079 113.341 177.1 113.341 177.122 113.341C177.143 113.341 177.165 113.341 177.186 113.341C177.208 113.341 177.229 113.341 177.251 113.341C177.272 113.341 177.294 113.341 177.316 113.341C177.337 113.341 177.359 113.341 177.381 113.341C177.403 113.341 177.424 113.341 177.446 113.341C177.468 113.341 177.49 113.341 177.512 113.341C177.534 113.341 177.556 113.341 177.578 113.341C177.6 113.341 177.622 113.341 177.644 113.341C177.666 113.341 177.688 113.341 177.71 113.341C177.732 113.341 177.755 113.341 177.777 113.341C177.799 113.341 177.821 113.341 177.844 113.341C177.866 113.341 177.888 113.341 177.911 113.341C177.933 113.341 177.955 113.341 177.978 113.341C178 113.341 178.023 113.341 178.045 113.341C178.068 113.341 178.09 113.341 178.113 113.341C178.135 113.341 178.158 113.341 178.181 113.341C178.203 113.341 178.226 113.341 178.249 113.341C178.272 113.341 178.294 113.341 178.317 113.341C178.34 113.341 178.363 113.341 178.386 113.341C178.409 113.341 178.431 113.341 178.454 113.341C178.477 113.341 178.5 113.341 178.523 113.341C178.546 113.341 178.569 113.341 178.593 113.341C178.616 113.341 178.639 113.341 178.662 113.341C178.685 113.341 178.708 113.341 178.732 113.341C178.755 113.341 178.778 113.341 178.801 113.341C178.825 113.341 178.848 113.341 178.871 113.341C178.895 113.341 178.918 113.341 178.942 113.341C178.965 113.341 178.989 113.341 179.012 113.341C179.036 113.341 179.059 113.341 179.083 113.341C179.106 113.341 179.13 113.341 179.153 113.341C179.177 113.341 179.201 113.341 179.225 113.341C179.248 113.341 179.272 113.341 179.296 113.341C179.32 113.341 179.343 113.341 179.367 113.341C179.391 113.341 179.415 113.341 179.439 113.341C179.463 113.341 179.487 113.341 179.511 113.341C179.535 113.341 179.559 113.341 179.583 113.341C179.607 113.341 179.631 113.341 179.655 113.341C179.679 113.341 179.703 113.341 179.727 113.341C179.751 113.341 179.776 113.341 179.8 113.341C179.824 113.341 179.848 113.341 179.873 113.341C179.897 113.341 179.921 113.341 179.946 113.341C179.97 113.341 179.994 113.341 180.019 113.341C180.043 113.341 180.068 113.341 180.092 113.341C180.117 113.341 180.141 113.341 180.166 113.341C180.19 113.341 180.215 113.341 180.239 113.341C180.264 113.341 180.289 113.341 180.313 113.341C180.338 113.341 180.363 113.341 180.387 113.341C180.412 113.341 180.437 113.341 180.461 113.341C180.486 113.341 180.511 113.341 180.536 113.341C180.561 113.341 180.586 113.341 180.611 113.341C180.635 113.341 180.66 113.341 180.685 113.341C180.71 113.341 180.735 113.341 180.76 113.341C180.785 113.341 180.81 113.341 180.835 113.341C180.86 113.341 180.886 113.341 180.911 113.341C180.936 113.341 180.961 113.341 180.986 113.341C181.011 113.341 181.037 113.341 181.062 113.341C181.087 113.341 181.112 113.341 181.138 113.341C181.163 113.341 181.188 113.341 181.214 113.341C181.239 113.341 181.264 113.341 181.29 113.341C181.315 113.341 181.34 113.341 181.366 113.341C181.391 113.341 181.417 113.341 181.442 113.341C181.468 113.341 181.493 113.341 181.519 113.341C181.545 113.341 181.57 113.341 181.596 113.341C181.621 113.341 181.647 113.341 181.673 113.341C181.698 113.341 181.724 113.341 181.75 113.341C181.776 113.341 181.801 113.341 181.827 113.341C181.853 113.341 181.879 113.341 181.904 113.341C181.93 113.341 181.956 113.341 181.982 113.341C182.008 113.341 182.034 113.341 182.06 113.341C182.086 113.341 182.112 113.341 182.138 113.341C182.164 113.341 182.19 113.341 182.216 113.341C182.242 113.341 182.268 113.341 182.294 113.341C182.32 113.341 182.346 113.341 182.372 113.341C182.398 113.341 182.424 113.341 182.451 113.341C182.477 113.341 182.503 113.341 182.529 113.341C182.555 113.341 182.582 113.341 182.608 113.341C182.634 113.341 182.66 113.341 182.687 113.341C182.713 113.341 182.739 113.341 182.766 113.341C182.792 113.341 182.819 113.341 182.845 113.341C182.871 113.341 182.898 113.341 182.924 113.341C182.951 113.341 182.977 113.341 183.004 113.341C183.03 113.341 183.057 113.341 183.083 113.341C183.11 113.341 183.136 113.341 183.163 113.341C183.19 113.341 183.216 113.341 183.243 113.341C183.269 113.341 183.296 113.341 183.323 113.341C183.349 113.341 183.376 113.341 183.403 113.341C183.43 113.341 183.456 113.341 183.483 113.341C183.51 113.341 183.537 113.341 183.563 113.341C183.59 113.341 183.617 113.341 183.644 113.341C183.671 113.341 183.698 113.341 183.725 113.341C183.751 113.341 183.778 113.341 183.805 113.341C183.832 113.341 183.859 113.341 183.886 113.341C183.913 113.341 183.94 113.341 183.967 113.341C183.994 113.341 184.021 113.341 184.048 113.341C184.075 113.341 184.102 113.341 184.129 113.341C184.157 113.341 184.184 113.341 184.211 113.341C184.238 113.341 184.265 113.341 184.292 113.341C184.319 113.341 184.347 113.341 184.374 113.341C184.401 113.341 184.428 113.341 184.455 113.341C184.483 113.341 184.51 113.341 184.537 113.341C184.565 113.341 184.592 113.341 184.619 113.341C184.647 113.341 184.674 113.341 184.701 113.341C184.729 113.341 184.756 113.341 184.783 113.341C184.811 113.341 184.838 113.341 184.866 113.341C184.893 113.341 184.92 113.341 184.948 113.341C184.975 113.341 185.003 113.341 185.03 113.341C185.058 113.341 185.085 113.341 185.113 113.341C185.14 113.341 185.168 113.341 185.196 113.341C185.223 113.341 185.251 113.341 185.278 113.341C185.306 113.341 185.334 113.341 185.361 113.341C185.389 113.341 185.416 113.341 185.444 113.341C185.472 113.341 185.499 113.341 185.527 113.341C185.555 113.341 185.583 113.341 185.61 113.341C185.638 113.341 185.666 113.341 185.694 113.341C185.721 113.341 185.749 113.341 185.777 113.341C185.805 113.341 185.832 113.341 185.86 113.341C185.888 113.341 185.916 113.341 185.944 113.341C185.972 113.341 186 113.341 186.027 113.341C186.055 113.341 186.083 113.341 186.111 113.341C186.139 113.341 186.167 113.341 186.195 113.341C186.223 113.341 186.251 113.341 186.279 113.341C186.307 113.341 186.335 113.341 186.363 113.341C186.391 113.341 186.419 113.341 186.447 113.341C186.475 113.341 186.503 113.341 186.531 113.341C186.559 113.341 186.587 113.341 186.615 113.341C186.643 113.341 186.671 113.341 186.699 113.341C186.727 113.341 186.756 113.341 186.784 113.341C186.812 113.341 186.84 113.341 186.868 113.341C186.896 113.341 186.924 113.341 186.953 113.341C186.981 113.341 187.009 113.341 187.037 113.341C187.065 113.341 187.094 113.341 187.122 113.341C187.15 113.341 187.178 113.341 187.207 113.341C187.235 113.341 187.263 113.341 187.291 113.341C187.32 113.341 187.348 113.341 187.376 113.341C187.404 113.341 187.433 113.341 187.461 113.341C187.489 113.341 187.518 113.341 187.546 113.341C187.574 113.341 187.603 113.341 187.631 113.341C187.66 113.341 187.688 113.341 187.716 113.341C187.745 113.341 187.773 113.341 187.801 113.341C187.83 113.341 187.858 113.341 187.887 113.341C187.915 113.341 187.944 113.341 187.972 113.341C188.001 113.341 188.029 113.341 188.057 113.341C188.086 113.341 188.114 113.341 188.143 113.341C188.171 113.341 188.2 113.341 188.228 113.341C188.257 113.341 188.285 113.341 188.314 113.341C188.342 113.341 188.371 113.341 188.399 113.341C188.428 113.341 188.457 113.341 188.485 113.341C188.514 113.341 188.542 113.341 188.571 113.341C188.599 113.341 188.628 113.341 188.657 113.341C188.685 113.341 188.714 113.341 188.742 113.341C188.771 113.341 188.8 113.341 188.828 113.341C188.857 113.341 188.885 113.341 188.914 113.341C188.943 113.341 188.971 113.341 189 113.341C189.029 113.341 189.057 113.341 189.086 113.341C189.115 113.341 189.143 113.341 189.172 113.341C189.201 113.341 189.229 113.341 189.258 113.341C189.287 113.341 189.316 113.341 189.344 113.341C189.373 113.341 189.402 113.341 189.43 113.341C189.459 113.341 189.488 113.341 189.517 113.341C189.545 113.341 189.574 113.341 189.603 113.341C189.631 113.341 189.66 113.341 189.689 113.341C189.718 113.341 189.747 113.341 189.775 113.341C189.804 113.341 189.833 113.341 189.862 113.341C189.89 113.341 189.919 113.341 189.948 113.341C189.977 113.341 190.006 113.341 190.034 113.341C190.063 113.341 190.092 113.341 190.121 113.341C190.15 113.341 190.178 113.341 190.207 113.341C190.236 113.341 190.265 113.341 190.294 113.341C190.322 113.341 190.351 113.341 190.38 113.341C190.409 113.341 190.438 113.341 190.467 113.341C190.495 113.341 190.524 113.341 190.553 113.341C190.582 113.341 190.611 113.341 190.64 113.341C190.669 113.341 190.697 113.341 190.726 113.341C190.755 113.341 190.784 113.341 190.813 113.341C190.842 113.341 190.871 113.341 190.899 113.341C190.928 113.341 190.957 113.341 190.986 113.341C191.015 113.341 191.044 113.341 191.073 113.341C191.102 113.341 191.13 113.341 191.159 113.341C191.188 113.341 191.217 113.341 191.246 113.341C191.275 113.341 191.304 113.341 191.333 113.341C191.362 113.341 191.39 113.341 191.419 113.341C191.448 113.341 191.477 113.341 191.506 113.341C191.535 113.341 191.564 113.341 191.593 113.341C191.622 113.341 191.65 113.341 191.679 113.341C191.708 113.341 191.737 113.341 191.766 113.341C191.795 113.341 191.824 113.341 191.853 113.341C191.882 113.341 191.911 113.341 191.939 113.341C191.968 113.341 191.997 113.341 192.026 113.341C192.055 113.341 192.084 113.341 192.113 113.341C192.142 113.341 192.171 113.341 192.2 113.341C192.228 113.341 192.257 113.341 192.286 113.341C192.315 113.341 192.344 113.341 192.373 113.341C192.402 113.341 192.431 113.341 192.46 113.341C192.489 113.341 192.517 113.341 192.546 113.341C192.575 113.341 192.604 113.341 192.633 113.341C192.662 113.341 192.691 113.341 192.72 113.341C192.749 113.341 192.777 113.341 192.806 113.341C192.835 113.341 192.864 113.341 192.893 113.341C192.922 113.341 192.951 113.341 192.98 113.341C193.008 113.341 193.037 113.341 193.066 113.341C193.095 113.341 193.124 113.341 193.153 113.341C193.182 113.341 193.211 113.341 193.239 113.341C193.268 113.341 193.297 113.341 193.326 113.341C193.355 113.341 193.384 113.341 193.412 113.341C193.441 113.341 193.47 113.341 193.499 113.341C193.528 113.341 193.557 113.341 193.585 113.341C193.614 113.341 193.643 113.341 193.672 113.341C193.701 113.341 193.73 113.341 193.758 113.341C193.787 113.341 193.816 113.341 193.845 113.341C193.874 113.341 193.902 113.341 193.931 113.341C193.96 113.341 193.989 113.341 194.018 113.341C194.046 113.341 194.075 113.341 194.104 113.341C194.133 113.341 194.161 113.341 194.19 113.341C194.219 113.341 194.248 113.341 194.276 113.341C194.305 113.341 194.334 113.341 194.363 113.341C194.391 113.341 194.42 113.341 194.449 113.341C194.478 113.341 194.506 113.341 194.535 113.341C194.564 113.341 194.592 113.341 194.621 113.341C194.65 113.341 194.678 113.341 194.707 113.341C194.736 113.341 194.765 113.341 194.793 113.341C194.822 113.341 194.851 113.341 194.879 113.341C194.908 113.341 194.937 113.341 194.965 113.341C194.994 113.341 195.022 113.341 195.051 113.341C195.08 113.341 195.108 113.341 195.137 113.341C195.166 113.341 195.194 113.341 195.223 113.341C195.251 113.341 195.28 113.341 195.309 113.341C195.337 113.341 195.366 113.341 195.394 113.341C195.423 113.341 195.451 113.341 195.48 113.341C195.508 113.341 195.537 113.341 195.566 113.341C195.594 113.341 195.623 113.341 195.651 113.341C195.68 113.341 195.708 113.341 195.737 113.341C195.765 113.341 195.794 113.341 195.822 113.341C195.851 113.341 195.879 113.341 195.907 113.341C195.936 113.341 195.964 113.341 195.993 113.341C196.021 113.341 196.05 113.341 196.078 113.341C196.106 113.341 196.135 113.341 196.163 113.341C196.192 113.341 196.22 113.341 196.248 113.341C196.277 113.341 196.305 113.341 196.334 113.341C196.362 113.341 196.39 113.341 196.419 113.341C196.447 113.341 196.475 113.341 196.503 113.341C196.532 113.341 196.56 113.341 196.588 113.341C196.617 113.341 196.645 113.341 196.673 113.341C196.701 113.341 196.73 113.341 196.758 113.341C196.786 113.341 196.814 113.341 196.843 113.341C196.871 113.341 196.899 113.341 196.927 113.341C196.955 113.341 196.984 113.341 197.012 113.341C197.04 113.341 197.068 113.341 197.096 113.341C197.124 113.341 197.153 113.341 197.181 113.341C197.209 113.341 197.237 113.341 197.265 113.341C197.293 113.341 197.321 113.341 197.349 113.341C197.377 113.341 197.405 113.341 197.433 113.341C197.461 113.341 197.489 113.341 197.517 113.341C197.545 113.341 197.573 113.341 197.601 113.341C197.629 113.341 197.657 113.341 197.685 113.341C197.713 113.341 197.741 113.341 197.769 113.341C197.797 113.341 197.825 113.341 197.853 113.341C197.881 113.341 197.909 113.341 197.936 113.341C197.964 113.341 197.992 113.341 198.02 113.341C198.048 113.341 198.076 113.341 198.103 113.341C198.131 113.341 198.159 113.341 198.187 113.341C198.215 113.341 198.242 113.341 198.27 113.341C198.298 113.341 198.326 113.341 198.353 113.341C198.381 113.341 198.409 113.341 198.436 113.341C198.464 113.341 198.492 113.341 198.519 113.341C198.547 113.341 198.575 113.341 198.602 113.341C198.63 113.341 198.657 113.341 198.685 113.341C198.713 113.341 198.74 113.341 198.768 113.341C198.795 113.341 198.823 113.341 198.85 113.341C198.878 113.341 198.905 113.341 198.933 113.341C198.96 113.341 198.988 113.341 199.015 113.341C199.043 113.341 199.07 113.341 199.097 113.341C199.125 113.341 199.152 113.341 199.18 113.341C199.207 113.341 199.234 113.341 199.262 113.341C199.289 113.341 199.316 113.341 199.344 113.341C199.371 113.341 199.398 113.341 199.425 113.341C199.453 113.341 199.48 113.341 199.507 113.341C199.534 113.341 199.562 113.341 199.589 113.341C199.616 113.341 199.643 113.341 199.67 113.341C199.697 113.341 199.725 113.341 199.752 113.341C199.779 113.341 199.806 113.341 199.833 113.341C199.86 113.341 199.887 113.341 199.914 113.341C199.941 113.341 199.968 113.341 199.995 113.341C200.022 113.341 200.049 113.341 200.076 113.341C200.103 113.341 200.13 113.341 200.157 113.341C200.184 113.341 200.211 113.341 200.237 113.341C200.264 113.341 200.291 113.341 200.318 113.341C200.345 113.341 200.372 113.341 200.398 113.341C200.425 113.341 200.452 113.341 200.479 113.341C200.505 113.341 200.532 113.341 200.559 113.341C200.586 113.341 200.612 113.341 200.639 113.341C200.666 113.341 200.692 113.341 200.719 113.341C200.745 113.341 200.772 113.341 200.799 113.341C200.825 113.341 200.852 113.341 200.878 113.341C200.905 113.341 200.931 113.341 200.958 113.341C200.984 113.341 201.011 113.341 201.037 113.341C201.063 113.341 201.09 113.341 201.116 113.341C201.143 113.341 201.169 113.341 201.195 113.341C201.222 113.341 201.248 113.341 201.274 113.341C201.301 113.341 201.327 113.341 201.353 113.341C201.379 113.341 201.406 113.341 201.432 113.341C201.458 113.341 201.484 113.341 201.51 113.341C201.536 113.341 201.562 113.341 201.589 113.341C201.615 113.341 201.641 113.341 201.667 113.341C201.693 113.341 201.719 113.341 201.745 113.341C201.771 113.341 201.797 113.341 201.823 113.341C201.849 113.341 201.875 113.341 201.901 113.341C201.926 113.341 201.952 113.341 201.978 113.341C202.004 113.341 202.03 113.341 202.056 113.341C202.081 113.341 202.107 113.341 202.133 113.341C202.159 113.341 202.184 113.341 202.21 113.341C202.236 113.341 202.261 113.341 202.287 113.341C202.313 113.341 202.338 113.341 202.364 113.341C202.39 113.341 202.415 113.341 202.441 113.341C202.466 113.341 202.492 113.341 202.517 113.341C202.543 113.341 202.568 113.341 202.594 113.341C202.619 113.341 202.644 113.341 202.67 113.341C202.695 113.341 202.72 113.341 202.746 113.341C202.771 113.341 202.796 113.341 202.822 113.341C202.847 113.341 202.872 113.341 202.897 113.341C202.923 113.341 202.948 113.341 202.973 113.341C202.998 113.341 203.023 113.341 203.048 113.341C203.073 113.341 203.098 113.341 203.123 113.341C203.148 113.341 203.173 113.341 203.198 113.341C203.223 113.341 203.248 113.341 203.273 113.341C203.298 113.341 203.323 113.341 203.348 113.341C203.373 113.341 203.398 113.341 203.422 113.341C203.447 113.341 203.472 113.341 203.497 113.341C203.521 113.341 203.546 113.341 203.571 113.341C203.596 113.341 203.62 113.341 203.645 113.341C203.669 113.341 203.694 113.341 203.719 113.341C203.743 113.341 203.768 113.341 203.792 113.341C203.817 113.341 203.841 113.341 203.866 113.341C203.89 113.341 203.914 113.341 203.939 113.341C203.963 113.341 203.988 113.341 204.012 113.341C204.036 113.341 204.061 113.341 204.085 113.341C204.109 113.341 204.133 113.341 204.157 113.341C204.182 113.341 204.206 113.341 204.23 113.341C204.254 113.341 204.278 113.341 204.302 113.341C204.326 113.341 204.35 113.341 204.374 113.341C204.398 113.341 204.422 113.341 204.446 113.341C204.47 113.341 204.494 113.341 204.518 113.341C204.542 113.341 204.566 113.341 204.589 113.341C204.613 113.341 204.637 113.341 204.661 113.341C204.684 113.341 204.708 113.341 204.732 113.341C204.755 113.341 204.779 113.341 204.803 113.341C204.826 113.341 204.85 113.341 204.873 113.341C204.897 113.341 204.92 113.341 204.944 113.341C204.967 113.341 204.991 113.341 205.014 113.341C205.038 113.341 205.061 113.341 205.084 113.341C205.108 113.341 205.131 113.341 205.154 113.341C205.177 113.341 205.201 113.341 205.224 113.341C205.247 113.341 205.27 113.341 205.293 113.341C205.316 113.341 205.34 113.341 205.363 113.341C205.386 113.341 205.409 113.341 205.432 113.341C205.455 113.341 205.478 113.341 205.501 113.341C205.523 113.341 205.546 113.341 205.569 113.341C205.592 113.341 205.615 113.341 205.638 113.341C205.66 113.341 205.683 113.341 205.706 113.341C205.728 113.341 205.751 113.341 205.774 113.341C205.796 113.341 205.819 113.341 205.841 113.341C205.864 113.341 205.887 113.341 205.909 113.341C205.931 113.341 205.954 113.341 205.976 113.341C205.999 113.341 206.021 113.341 206.043 113.341C206.066 113.341 206.088 113.341 206.11 113.341C206.133 113.341 206.155 113.341 206.177 113.341C206.199 113.341 206.221 113.341 206.243 113.341C206.265 113.341 206.287 113.341 206.31 113.341C206.332 113.341 206.354 113.341 206.375 113.341C206.397 113.341 206.419 113.341 206.441 113.341C206.463 113.341 206.485 113.341 206.507 113.341C206.528 113.341 206.55 113.341 206.572 113.341C206.594 113.341 206.615 113.341 206.637 113.341C206.659 113.341 206.68 113.341 206.702 113.341C206.723 113.341 206.745 113.341 206.766 113.341C206.788 113.341 206.809 113.341 206.831 113.341C206.852 113.341 206.873 113.341 206.895 113.341C206.916 113.341 206.937 113.341 206.958 113.341V109.341C206.937 109.341 206.916 109.341 206.895 109.341C206.873 109.341 206.852 109.341 206.831 109.341C206.809 109.341 206.788 109.341 206.766 109.341C206.745 109.341 206.723 109.341 206.702 109.341C206.68 109.341 206.659 109.341 206.637 109.341C206.615 109.341 206.594 109.341 206.572 109.341C206.55 109.341 206.528 109.341 206.507 109.341C206.485 109.341 206.463 109.341 206.441 109.341C206.419 109.341 206.397 109.341 206.375 109.341C206.354 109.341 206.332 109.341 206.31 109.341C206.287 109.341 206.265 109.341 206.243 109.341C206.221 109.341 206.199 109.341 206.177 109.341C206.155 109.341 206.133 109.341 206.11 109.341C206.088 109.341 206.066 109.341 206.043 109.341C206.021 109.341 205.999 109.341 205.976 109.341C205.954 109.341 205.931 109.341 205.909 109.341C205.887 109.341 205.864 109.341 205.841 109.341C205.819 109.341 205.796 109.341 205.774 109.341C205.751 109.341 205.728 109.341 205.706 109.341C205.683 109.341 205.66 109.341 205.638 109.341C205.615 109.341 205.592 109.341 205.569 109.341C205.546 109.341 205.523 109.341 205.501 109.341C205.478 109.341 205.455 109.341 205.432 109.341C205.409 109.341 205.386 109.341 205.363 109.341C205.34 109.341 205.316 109.341 205.293 109.341C205.27 109.341 205.247 109.341 205.224 109.341C205.201 109.341 205.177 109.341 205.154 109.341C205.131 109.341 205.108 109.341 205.084 109.341C205.061 109.341 205.038 109.341 205.014 109.341C204.991 109.341 204.967 109.341 204.944 109.341C204.92 109.341 204.897 109.341 204.873 109.341C204.85 109.341 204.826 109.341 204.803 109.341C204.779 109.341 204.755 109.341 204.732 109.341C204.708 109.341 204.684 109.341 204.661 109.341C204.637 109.341 204.613 109.341 204.589 109.341C204.566 109.341 204.542 109.341 204.518 109.341C204.494 109.341 204.47 109.341 204.446 109.341C204.422 109.341 204.398 109.341 204.374 109.341C204.35 109.341 204.326 109.341 204.302 109.341C204.278 109.341 204.254 109.341 204.23 109.341C204.206 109.341 204.182 109.341 204.157 109.341C204.133 109.341 204.109 109.341 204.085 109.341C204.061 109.341 204.036 109.341 204.012 109.341C203.988 109.341 203.963 109.341 203.939 109.341C203.914 109.341 203.89 109.341 203.866 109.341C203.841 109.341 203.817 109.341 203.792 109.341C203.768 109.341 203.743 109.341 203.719 109.341C203.694 109.341 203.669 109.341 203.645 109.341C203.62 109.341 203.596 109.341 203.571 109.341C203.546 109.341 203.521 109.341 203.497 109.341C203.472 109.341 203.447 109.341 203.422 109.341C203.398 109.341 203.373 109.341 203.348 109.341C203.323 109.341 203.298 109.341 203.273 109.341C203.248 109.341 203.223 109.341 203.198 109.341C203.173 109.341 203.148 109.341 203.123 109.341C203.098 109.341 203.073 109.341 203.048 109.341C203.023 109.341 202.998 109.341 202.973 109.341C202.948 109.341 202.923 109.341 202.897 109.341C202.872 109.341 202.847 109.341 202.822 109.341C202.796 109.341 202.771 109.341 202.746 109.341C202.72 109.341 202.695 109.341 202.67 109.341C202.644 109.341 202.619 109.341 202.594 109.341C202.568 109.341 202.543 109.341 202.517 109.341C202.492 109.341 202.466 109.341 202.441 109.341C202.415 109.341 202.39 109.341 202.364 109.341C202.338 109.341 202.313 109.341 202.287 109.341C202.261 109.341 202.236 109.341 202.21 109.341C202.184 109.341 202.159 109.341 202.133 109.341C202.107 109.341 202.081 109.341 202.056 109.341C202.03 109.341 202.004 109.341 201.978 109.341C201.952 109.341 201.926 109.341 201.901 109.341C201.875 109.341 201.849 109.341 201.823 109.341C201.797 109.341 201.771 109.341 201.745 109.341C201.719 109.341 201.693 109.341 201.667 109.341C201.641 109.341 201.615 109.341 201.589 109.341C201.562 109.341 201.536 109.341 201.51 109.341C201.484 109.341 201.458 109.341 201.432 109.341C201.406 109.341 201.379 109.341 201.353 109.341C201.327 109.341 201.301 109.341 201.274 109.341C201.248 109.341 201.222 109.341 201.195 109.341C201.169 109.341 201.143 109.341 201.116 109.341C201.09 109.341 201.063 109.341 201.037 109.341C201.011 109.341 200.984 109.341 200.958 109.341C200.931 109.341 200.905 109.341 200.878 109.341C200.852 109.341 200.825 109.341 200.799 109.341C200.772 109.341 200.745 109.341 200.719 109.341C200.692 109.341 200.666 109.341 200.639 109.341C200.612 109.341 200.586 109.341 200.559 109.341C200.532 109.341 200.505 109.341 200.479 109.341C200.452 109.341 200.425 109.341 200.398 109.341C200.372 109.341 200.345 109.341 200.318 109.341C200.291 109.341 200.264 109.341 200.237 109.341C200.211 109.341 200.184 109.341 200.157 109.341C200.13 109.341 200.103 109.341 200.076 109.341C200.049 109.341 200.022 109.341 199.995 109.341C199.968 109.341 199.941 109.341 199.914 109.341C199.887 109.341 199.86 109.341 199.833 109.341C199.806 109.341 199.779 109.341 199.752 109.341C199.725 109.341 199.697 109.341 199.67 109.341C199.643 109.341 199.616 109.341 199.589 109.341C199.562 109.341 199.534 109.341 199.507 109.341C199.48 109.341 199.453 109.341 199.425 109.341C199.398 109.341 199.371 109.341 199.344 109.341C199.316 109.341 199.289 109.341 199.262 109.341C199.234 109.341 199.207 109.341 199.18 109.341C199.152 109.341 199.125 109.341 199.097 109.341C199.07 109.341 199.043 109.341 199.015 109.341C198.988 109.341 198.96 109.341 198.933 109.341C198.905 109.341 198.878 109.341 198.85 109.341C198.823 109.341 198.795 109.341 198.768 109.341C198.74 109.341 198.713 109.341 198.685 109.341C198.657 109.341 198.63 109.341 198.602 109.341C198.575 109.341 198.547 109.341 198.519 109.341C198.492 109.341 198.464 109.341 198.436 109.341C198.409 109.341 198.381 109.341 198.353 109.341C198.326 109.341 198.298 109.341 198.27 109.341C198.242 109.341 198.215 109.341 198.187 109.341C198.159 109.341 198.131 109.341 198.103 109.341C198.076 109.341 198.048 109.341 198.02 109.341C197.992 109.341 197.964 109.341 197.936 109.341C197.909 109.341 197.881 109.341 197.853 109.341C197.825 109.341 197.797 109.341 197.769 109.341C197.741 109.341 197.713 109.341 197.685 109.341C197.657 109.341 197.629 109.341 197.601 109.341C197.573 109.341 197.545 109.341 197.517 109.341C197.489 109.341 197.461 109.341 197.433 109.341C197.405 109.341 197.377 109.341 197.349 109.341C197.321 109.341 197.293 109.341 197.265 109.341C197.237 109.341 197.209 109.341 197.181 109.341C197.153 109.341 197.124 109.341 197.096 109.341C197.068 109.341 197.04 109.341 197.012 109.341C196.984 109.341 196.955 109.341 196.927 109.341C196.899 109.341 196.871 109.341 196.843 109.341C196.814 109.341 196.786 109.341 196.758 109.341C196.73 109.341 196.701 109.341 196.673 109.341C196.645 109.341 196.617 109.341 196.588 109.341C196.56 109.341 196.532 109.341 196.503 109.341C196.475 109.341 196.447 109.341 196.419 109.341C196.39 109.341 196.362 109.341 196.334 109.341C196.305 109.341 196.277 109.341 196.248 109.341C196.22 109.341 196.192 109.341 196.163 109.341C196.135 109.341 196.106 109.341 196.078 109.341C196.05 109.341 196.021 109.341 195.993 109.341C195.964 109.341 195.936 109.341 195.907 109.341C195.879 109.341 195.851 109.341 195.822 109.341C195.794 109.341 195.765 109.341 195.737 109.341C195.708 109.341 195.68 109.341 195.651 109.341C195.623 109.341 195.594 109.341 195.566 109.341C195.537 109.341 195.508 109.341 195.48 109.341C195.451 109.341 195.423 109.341 195.394 109.341C195.366 109.341 195.337 109.341 195.309 109.341C195.28 109.341 195.251 109.341 195.223 109.341C195.194 109.341 195.166 109.341 195.137 109.341C195.108 109.341 195.08 109.341 195.051 109.341C195.022 109.341 194.994 109.341 194.965 109.341C194.937 109.341 194.908 109.341 194.879 109.341C194.851 109.341 194.822 109.341 194.793 109.341C194.765 109.341 194.736 109.341 194.707 109.341C194.678 109.341 194.65 109.341 194.621 109.341C194.592 109.341 194.564 109.341 194.535 109.341C194.506 109.341 194.478 109.341 194.449 109.341C194.42 109.341 194.391 109.341 194.363 109.341C194.334 109.341 194.305 109.341 194.276 109.341C194.248 109.341 194.219 109.341 194.19 109.341C194.161 109.341 194.133 109.341 194.104 109.341C194.075 109.341 194.046 109.341 194.018 109.341C193.989 109.341 193.96 109.341 193.931 109.341C193.902 109.341 193.874 109.341 193.845 109.341C193.816 109.341 193.787 109.341 193.758 109.341C193.73 109.341 193.701 109.341 193.672 109.341C193.643 109.341 193.614 109.341 193.585 109.341C193.557 109.341 193.528 109.341 193.499 109.341C193.47 109.341 193.441 109.341 193.412 109.341C193.384 109.341 193.355 109.341 193.326 109.341C193.297 109.341 193.268 109.341 193.239 109.341C193.211 109.341 193.182 109.341 193.153 109.341C193.124 109.341 193.095 109.341 193.066 109.341C193.037 109.341 193.008 109.341 192.98 109.341C192.951 109.341 192.922 109.341 192.893 109.341C192.864 109.341 192.835 109.341 192.806 109.341C192.777 109.341 192.749 109.341 192.72 109.341C192.691 109.341 192.662 109.341 192.633 109.341C192.604 109.341 192.575 109.341 192.546 109.341C192.517 109.341 192.489 109.341 192.46 109.341C192.431 109.341 192.402 109.341 192.373 109.341C192.344 109.341 192.315 109.341 192.286 109.341C192.257 109.341 192.228 109.341 192.2 109.341C192.171 109.341 192.142 109.341 192.113 109.341C192.084 109.341 192.055 109.341 192.026 109.341C191.997 109.341 191.968 109.341 191.939 109.341C191.911 109.341 191.882 109.341 191.853 109.341C191.824 109.341 191.795 109.341 191.766 109.341C191.737 109.341 191.708 109.341 191.679 109.341C191.65 109.341 191.622 109.341 191.593 109.341C191.564 109.341 191.535 109.341 191.506 109.341C191.477 109.341 191.448 109.341 191.419 109.341C191.39 109.341 191.362 109.341 191.333 109.341C191.304 109.341 191.275 109.341 191.246 109.341C191.217 109.341 191.188 109.341 191.159 109.341C191.13 109.341 191.102 109.341 191.073 109.341C191.044 109.341 191.015 109.341 190.986 109.341C190.957 109.341 190.928 109.341 190.899 109.341C190.871 109.341 190.842 109.341 190.813 109.341C190.784 109.341 190.755 109.341 190.726 109.341C190.697 109.341 190.669 109.341 190.64 109.341C190.611 109.341 190.582 109.341 190.553 109.341C190.524 109.341 190.495 109.341 190.467 109.341C190.438 109.341 190.409 109.341 190.38 109.341C190.351 109.341 190.322 109.341 190.294 109.341C190.265 109.341 190.236 109.341 190.207 109.341C190.178 109.341 190.15 109.341 190.121 109.341C190.092 109.341 190.063 109.341 190.034 109.341C190.006 109.341 189.977 109.341 189.948 109.341C189.919 109.341 189.89 109.341 189.862 109.341C189.833 109.341 189.804 109.341 189.775 109.341C189.747 109.341 189.718 109.341 189.689 109.341C189.66 109.341 189.631 109.341 189.603 109.341C189.574 109.341 189.545 109.341 189.517 109.341C189.488 109.341 189.459 109.341 189.43 109.341C189.402 109.341 189.373 109.341 189.344 109.341C189.316 109.341 189.287 109.341 189.258 109.341C189.229 109.341 189.201 109.341 189.172 109.341C189.143 109.341 189.115 109.341 189.086 109.341C189.057 109.341 189.029 109.341 189 109.341C188.971 109.341 188.943 109.341 188.914 109.341C188.885 109.341 188.857 109.341 188.828 109.341C188.8 109.341 188.771 109.341 188.742 109.341C188.714 109.341 188.685 109.341 188.657 109.341C188.628 109.341 188.599 109.341 188.571 109.341C188.542 109.341 188.514 109.341 188.485 109.341C188.457 109.341 188.428 109.341 188.399 109.341C188.371 109.341 188.342 109.341 188.314 109.341C188.285 109.341 188.257 109.341 188.228 109.341C188.2 109.341 188.171 109.341 188.143 109.341C188.114 109.341 188.086 109.341 188.057 109.341C188.029 109.341 188.001 109.341 187.972 109.341C187.944 109.341 187.915 109.341 187.887 109.341C187.858 109.341 187.83 109.341 187.801 109.341C187.773 109.341 187.745 109.341 187.716 109.341C187.688 109.341 187.66 109.341 187.631 109.341C187.603 109.341 187.574 109.341 187.546 109.341C187.518 109.341 187.489 109.341 187.461 109.341C187.433 109.341 187.404 109.341 187.376 109.341C187.348 109.341 187.32 109.341 187.291 109.341C187.263 109.341 187.235 109.341 187.207 109.341C187.178 109.341 187.15 109.341 187.122 109.341C187.094 109.341 187.065 109.341 187.037 109.341C187.009 109.341 186.981 109.341 186.953 109.341C186.924 109.341 186.896 109.341 186.868 109.341C186.84 109.341 186.812 109.341 186.784 109.341C186.756 109.341 186.727 109.341 186.699 109.341C186.671 109.341 186.643 109.341 186.615 109.341C186.587 109.341 186.559 109.341 186.531 109.341C186.503 109.341 186.475 109.341 186.447 109.341C186.419 109.341 186.391 109.341 186.363 109.341C186.335 109.341 186.307 109.341 186.279 109.341C186.251 109.341 186.223 109.341 186.195 109.341C186.167 109.341 186.139 109.341 186.111 109.341C186.083 109.341 186.055 109.341 186.027 109.341C186 109.341 185.972 109.341 185.944 109.341C185.916 109.341 185.888 109.341 185.86 109.341C185.832 109.341 185.805 109.341 185.777 109.341C185.749 109.341 185.721 109.341 185.694 109.341C185.666 109.341 185.638 109.341 185.61 109.341C185.583 109.341 185.555 109.341 185.527 109.341C185.499 109.341 185.472 109.341 185.444 109.341C185.416 109.341 185.389 109.341 185.361 109.341C185.334 109.341 185.306 109.341 185.278 109.341C185.251 109.341 185.223 109.341 185.196 109.341C185.168 109.341 185.14 109.341 185.113 109.341C185.085 109.341 185.058 109.341 185.03 109.341C185.003 109.341 184.975 109.341 184.948 109.341C184.92 109.341 184.893 109.341 184.866 109.341C184.838 109.341 184.811 109.341 184.783 109.341C184.756 109.341 184.729 109.341 184.701 109.341C184.674 109.341 184.647 109.341 184.619 109.341C184.592 109.341 184.565 109.341 184.537 109.341C184.51 109.341 184.483 109.341 184.455 109.341C184.428 109.341 184.401 109.341 184.374 109.341C184.347 109.341 184.319 109.341 184.292 109.341C184.265 109.341 184.238 109.341 184.211 109.341C184.184 109.341 184.157 109.341 184.129 109.341C184.102 109.341 184.075 109.341 184.048 109.341C184.021 109.341 183.994 109.341 183.967 109.341C183.94 109.341 183.913 109.341 183.886 109.341C183.859 109.341 183.832 109.341 183.805 109.341C183.778 109.341 183.751 109.341 183.725 109.341C183.698 109.341 183.671 109.341 183.644 109.341C183.617 109.341 183.59 109.341 183.563 109.341C183.537 109.341 183.51 109.341 183.483 109.341C183.456 109.341 183.43 109.341 183.403 109.341C183.376 109.341 183.349 109.341 183.323 109.341C183.296 109.341 183.269 109.341 183.243 109.341C183.216 109.341 183.19 109.341 183.163 109.341C183.136 109.341 183.11 109.341 183.083 109.341C183.057 109.341 183.03 109.341 183.004 109.341C182.977 109.341 182.951 109.341 182.924 109.341C182.898 109.341 182.871 109.341 182.845 109.341C182.819 109.341 182.792 109.341 182.766 109.341C182.739 109.341 182.713 109.341 182.687 109.341C182.66 109.341 182.634 109.341 182.608 109.341C182.582 109.341 182.555 109.341 182.529 109.341C182.503 109.341 182.477 109.341 182.451 109.341C182.424 109.341 182.398 109.341 182.372 109.341C182.346 109.341 182.32 109.341 182.294 109.341C182.268 109.341 182.242 109.341 182.216 109.341C182.19 109.341 182.164 109.341 182.138 109.341C182.112 109.341 182.086 109.341 182.06 109.341C182.034 109.341 182.008 109.341 181.982 109.341C181.956 109.341 181.93 109.341 181.904 109.341C181.879 109.341 181.853 109.341 181.827 109.341C181.801 109.341 181.776 109.341 181.75 109.341C181.724 109.341 181.698 109.341 181.673 109.341C181.647 109.341 181.621 109.341 181.596 109.341C181.57 109.341 181.545 109.341 181.519 109.341C181.493 109.341 181.468 109.341 181.442 109.341C181.417 109.341 181.391 109.341 181.366 109.341C181.34 109.341 181.315 109.341 181.29 109.341C181.264 109.341 181.239 109.341 181.214 109.341C181.188 109.341 181.163 109.341 181.138 109.341C181.112 109.341 181.087 109.341 181.062 109.341C181.037 109.341 181.011 109.341 180.986 109.341C180.961 109.341 180.936 109.341 180.911 109.341C180.886 109.341 180.86 109.341 180.835 109.341C180.81 109.341 180.785 109.341 180.76 109.341C180.735 109.341 180.71 109.341 180.685 109.341C180.66 109.341 180.635 109.341 180.611 109.341C180.586 109.341 180.561 109.341 180.536 109.341C180.511 109.341 180.486 109.341 180.461 109.341C180.437 109.341 180.412 109.341 180.387 109.341C180.363 109.341 180.338 109.341 180.313 109.341C180.289 109.341 180.264 109.341 180.239 109.341C180.215 109.341 180.19 109.341 180.166 109.341C180.141 109.341 180.117 109.341 180.092 109.341C180.068 109.341 180.043 109.341 180.019 109.341C179.994 109.341 179.97 109.341 179.946 109.341C179.921 109.341 179.897 109.341 179.873 109.341C179.848 109.341 179.824 109.341 179.8 109.341C179.776 109.341 179.751 109.341 179.727 109.341C179.703 109.341 179.679 109.341 179.655 109.341C179.631 109.341 179.607 109.341 179.583 109.341C179.559 109.341 179.535 109.341 179.511 109.341C179.487 109.341 179.463 109.341 179.439 109.341C179.415 109.341 179.391 109.341 179.367 109.341C179.343 109.341 179.32 109.341 179.296 109.341C179.272 109.341 179.248 109.341 179.225 109.341C179.201 109.341 179.177 109.341 179.153 109.341C179.13 109.341 179.106 109.341 179.083 109.341C179.059 109.341 179.036 109.341 179.012 109.341C178.989 109.341 178.965 109.341 178.942 109.341C178.918 109.341 178.895 109.341 178.871 109.341C178.848 109.341 178.825 109.341 178.801 109.341C178.778 109.341 178.755 109.341 178.732 109.341C178.708 109.341 178.685 109.341 178.662 109.341C178.639 109.341 178.616 109.341 178.593 109.341C178.569 109.341 178.546 109.341 178.523 109.341C178.5 109.341 178.477 109.341 178.454 109.341C178.431 109.341 178.409 109.341 178.386 109.341C178.363 109.341 178.34 109.341 178.317 109.341C178.294 109.341 178.272 109.341 178.249 109.341C178.226 109.341 178.203 109.341 178.181 109.341C178.158 109.341 178.135 109.341 178.113 109.341C178.09 109.341 178.068 109.341 178.045 109.341C178.023 109.341 178 109.341 177.978 109.341C177.955 109.341 177.933 109.341 177.911 109.341C177.888 109.341 177.866 109.341 177.844 109.341C177.821 109.341 177.799 109.341 177.777 109.341C177.755 109.341 177.732 109.341 177.71 109.341C177.688 109.341 177.666 109.341 177.644 109.341C177.622 109.341 177.6 109.341 177.578 109.341C177.556 109.341 177.534 109.341 177.512 109.341C177.49 109.341 177.468 109.341 177.446 109.341C177.424 109.341 177.403 109.341 177.381 109.341C177.359 109.341 177.337 109.341 177.316 109.341C177.294 109.341 177.272 109.341 177.251 109.341C177.229 109.341 177.208 109.341 177.186 109.341C177.165 109.341 177.143 109.341 177.122 109.341C177.1 109.341 177.079 109.341 177.057 109.341C177.036 109.341 177.015 109.341 176.993 109.341C176.972 109.341 176.951 109.341 176.93 109.341C176.909 109.341 176.887 109.341 176.866 109.341C176.845 109.341 176.824 109.341 176.803 109.341C176.782 109.341 176.761 109.341 176.74 109.341C176.719 109.341 176.698 109.341 176.677 109.341C176.656 109.341 176.636 109.341 176.615 109.341C176.594 109.341 176.573 109.341 176.552 109.341C176.532 109.341 176.511 109.341 176.49 109.341C176.47 109.341 176.449 109.341 176.429 109.341C176.408 109.341 176.388 109.341 176.367 109.341C176.347 109.341 176.326 109.341 176.306 109.341C176.286 109.341 176.265 109.341 176.245 109.341C176.225 109.341 176.204 109.341 176.184 109.341C176.164 109.341 176.144 109.341 176.124 109.341C176.104 109.341 176.084 109.341 176.064 109.341C176.044 109.341 176.024 109.341 176.004 109.341C175.984 109.341 175.964 109.341 175.944 109.341C175.924 109.341 175.904 109.341 175.884 109.341C175.865 109.341 175.845 109.341 175.825 109.341C175.806 109.341 175.786 109.341 175.766 109.341C175.747 109.341 175.727 109.341 175.708 109.341C175.688 109.341 175.669 109.341 175.649 109.341C175.63 109.341 175.611 109.341 175.591 109.341C175.572 109.341 175.553 109.341 175.533 109.341C175.514 109.341 175.495 109.341 175.476 109.341C175.457 109.341 175.438 109.341 175.419 109.341C175.4 109.341 175.381 109.341 175.362 109.341C175.343 109.341 175.324 109.341 175.305 109.341C175.286 109.341 175.267 109.341 175.248 109.341C175.23 109.341 175.211 109.341 175.192 109.341C175.174 109.341 175.155 109.341 175.136 109.341C175.118 109.341 175.099 109.341 175.081 109.341C175.062 109.341 175.044 109.341 175.025 109.341C175.007 109.341 174.989 109.341 174.97 109.341C174.952 109.341 174.934 109.341 174.916 109.341C174.897 109.341 174.879 109.341 174.861 109.341C174.843 109.341 174.825 109.341 174.807 109.341C174.789 109.341 174.771 109.341 174.753 109.341C174.735 109.341 174.717 109.341 174.699 109.341C174.682 109.341 174.664 109.341 174.646 109.341C174.628 109.341 174.611 109.341 174.593 109.341C174.576 109.341 174.558 109.341 174.54 109.341C174.523 109.341 174.505 109.341 174.488 109.341C174.471 109.341 174.453 109.341 174.436 109.341C174.419 109.341 174.401 109.341 174.384 109.341C174.367 109.341 174.35 109.341 174.332 109.341C174.315 109.341 174.298 109.341 174.281 109.341C174.264 109.341 174.247 109.341 174.23 109.341C174.213 109.341 174.196 109.341 174.18 109.341C174.163 109.341 174.146 109.341 174.129 109.341C174.113 109.341 174.096 109.341 174.079 109.341C174.063 109.341 174.046 109.341 174.03 109.341C174.013 109.341 173.997 109.341 173.98 109.341C173.964 109.341 173.947 109.341 173.931 109.341C173.915 109.341 173.898 109.341 173.882 109.341C173.866 109.341 173.85 109.341 173.834 109.341C173.818 109.341 173.802 109.341 173.786 109.341C173.77 109.341 173.754 109.341 173.738 109.341C173.722 109.341 173.706 109.341 173.69 109.341C173.674 109.341 173.659 109.341 173.643 109.341C173.627 109.341 173.612 109.341 173.596 109.341C173.58 109.341 173.565 109.341 173.549 109.341C173.534 109.341 173.519 109.341 173.503 109.341C173.488 109.341 173.473 109.341 173.457 109.341C173.442 109.341 173.427 109.341 173.412 109.341C173.397 109.341 173.381 109.341 173.366 109.341C173.351 109.341 173.336 109.341 173.321 109.341C173.306 109.341 173.292 109.341 173.277 109.341C173.262 109.341 173.247 109.341 173.232 109.341C173.218 109.341 173.203 109.341 173.188 109.341C173.174 109.341 173.159 109.341 173.145 109.341C173.13 109.341 173.116 109.341 173.102 109.341C173.087 109.341 173.073 109.341 173.059 109.341C173.044 109.341 173.03 109.341 173.016 109.341C173.002 109.341 172.988 109.341 172.974 109.341C172.959 109.341 172.945 109.341 172.932 109.341C172.918 109.341 172.904 109.341 172.89 109.341C172.876 109.341 172.862 109.341 172.849 109.341C172.835 109.341 172.821 109.341 172.808 109.341C172.794 109.341 172.781 109.341 172.767 109.341C172.754 109.341 172.74 109.341 172.727 109.341C172.713 109.341 172.7 109.341 172.687 109.341C172.674 109.341 172.66 109.341 172.647 109.341C172.634 109.341 172.621 109.341 172.608 109.341C172.595 109.341 172.582 109.341 172.569 109.341C172.556 109.341 172.543 109.341 172.531 109.341C172.518 109.341 172.505 109.341 172.492 109.341C172.48 109.341 172.467 109.341 172.455 109.341C172.442 109.341 172.43 109.341 172.417 109.341C172.405 109.341 172.392 109.341 172.38 109.341C172.368 109.341 172.355 109.341 172.343 109.341C172.331 109.341 172.319 109.341 172.307 109.341C172.295 109.341 172.283 109.341 172.271 109.341C172.259 109.341 172.247 109.341 172.235 109.341C172.223 109.341 172.211 109.341 172.2 109.341C172.188 109.341 172.176 109.341 172.165 109.341C172.153 109.341 172.142 109.341 172.13 109.341C172.119 109.341 172.107 109.341 172.096 109.341C172.085 109.341 172.073 109.341 172.062 109.341C172.051 109.341 172.04 109.341 172.029 109.341C172.017 109.341 172.006 109.341 171.995 109.341C171.984 109.341 171.974 109.341 171.963 109.341C171.952 109.341 171.941 109.341 171.93 109.341C171.92 109.341 171.909 109.341 171.898 109.341C171.888 109.341 171.877 109.341 171.867 109.341C171.856 109.341 171.846 109.341 171.835 109.341C171.825 109.341 171.815 109.341 171.805 109.341C171.794 109.341 171.784 109.341 171.774 109.341C171.764 109.341 171.754 109.341 171.744 109.341C171.734 109.341 171.724 109.341 171.714 109.341C171.704 109.341 171.694 109.341 171.685 109.341C171.675 109.341 171.665 109.341 171.656 109.341C171.646 109.341 171.637 109.341 171.627 109.341C171.618 109.341 171.608 109.341 171.599 109.341C171.59 109.341 171.58 109.341 171.571 109.341C171.562 109.341 171.553 109.341 171.544 109.341C171.535 109.341 171.526 109.341 171.517 109.341C171.508 109.341 171.499 109.341 171.49 109.341C171.481 109.341 171.472 109.341 171.464 109.341C171.455 109.341 171.446 109.341 171.438 109.341C171.429 109.341 171.421 109.341 171.412 109.341C171.404 109.341 171.396 109.341 171.387 109.341C171.379 109.341 171.371 109.341 171.363 109.341C171.354 109.341 171.346 109.341 171.338 109.341C171.33 109.341 171.322 109.341 171.314 109.341C171.307 109.341 171.299 109.341 171.291 109.341C171.283 109.341 171.275 109.341 171.268 109.341C171.26 109.341 171.253 109.341 171.245 109.341C171.238 109.341 171.23 109.341 171.223 109.341C171.216 109.341 171.208 109.341 171.201 109.341C171.194 109.341 171.187 109.341 171.18 109.341C171.172 109.341 171.165 109.341 171.159 109.341C171.152 109.341 171.145 109.341 171.138 109.341V113.341ZM206.951 113.341L218.881 121.391L221.119 118.076L209.188 110.025L206.951 113.341ZM206.958 113.341C206.959 113.341 206.958 113.341 206.958 113.34C206.957 113.34 206.956 113.34 206.955 113.34C206.953 113.34 206.951 113.339 206.949 113.339C206.945 113.337 206.945 113.337 206.951 113.341L209.188 110.025C208.534 109.583 207.764 109.341 206.958 109.341V113.341Z" fill="url(#paint2_linear_3345_38754)"/>
<g filter="url(#filter0_d_3345_38754)">
<rect x="209.374" y="109.09" width="21.286" height="21.286" rx="10.643" stroke="white" stroke-width="1.41907" shape-rendering="crispEdges"/>
<rect x="214.344" y="114.057" width="11.3525" height="11.3525" rx="5.67627" fill="white"/>
<line x1="16" y1="120.233" x2="221" y2="121.233" stroke="white" stroke-dasharray="4 4"/>
</g>
</g>
<defs>
<filter id="filter0_d_3345_38754" x="-4" y="89.3809" width="255.367" height="62.7051" filterUnits="userSpaceOnUse" color-interpolation-filters="sRGB">
<feFlood flood-opacity="0" result="BackgroundImageFix"/>
<feColorMatrix in="SourceAlpha" type="matrix" values="0 0 0 0 0 0 0 0 0 0 0 0 0 0 0 0 0 0 127 0" result="hardAlpha"/>
<feOffset dy="1"/>
<feGaussianBlur stdDeviation="10"/>
<feComposite in2="hardAlpha" operator="out"/>
<feColorMatrix type="matrix" values="0 0 0 0 1 0 0 0 0 1 0 0 0 0 1 0 0 0 1 0"/>
<feBlend mode="normal" in2="BackgroundImageFix" result="effect1_dropShadow_3345_38754"/>
<feBlend mode="normal" in="SourceGraphic" in2="effect1_dropShadow_3345_38754" result="shape"/>
</filter>
<linearGradient id="paint0_linear_3345_38754" x1="119" y1="98.5381" x2="119" y2="183.038" gradientUnits="userSpaceOnUse">
<stop stop-color="white" stop-opacity="0.6"/>
<stop offset="1" stop-color="white" stop-opacity="0"/>
</linearGradient>
<radialGradient id="paint1_radial_3345_38754" cx="0" cy="0" r="1" gradientUnits="userSpaceOnUse" gradientTransform="translate(237.5 -39.0975) rotate(137.866) scale(287.201 309.728)">
<stop offset="0.01" stop-color="#FBFFCF"/>
<stop offset="0.201941" stop-color="#77E2FE"/>
<stop offset="0.497111" stop-color="#896DFA"/>
<stop offset="0.767088" stop-color="#3F23FE"/>
<stop offset="1" stop-color="#1700B7"/>
</radialGradient>
<linearGradient id="paint2_linear_3345_38754" x1="201" y1="110.381" x2="19" y2="26.8808" gradientUnits="userSpaceOnUse">
<stop offset="0.0412379" stop-color="white"/>
<stop offset="1" stop-color="#1801B7"/>
</linearGradient>
<clipPath id="clip0_3345_38754">
<rect width="258" height="169" fill="white" transform="translate(16 16.0381)"/>
</clipPath>
</defs>
</svg>
