<svg width="290" height="201" viewBox="0 0 290 201" fill="none" xmlns="http://www.w3.org/2000/svg">
<rect width="290" height="201" rx="24" fill="#1F1F1F"/>
<g clip-path="url(#clip0_3345_38851)">
<path d="M14.5099 16.0661C13.4418 15.7845 12.3477 16.422 12.0661 17.4901C11.7845 18.5582 12.422 19.6523 13.4901 19.9339L14.5099 16.0661ZM258.648 171.544L260.019 170.088L258.648 171.544ZM13.4901 19.9339C14.4487 20.1866 15.5688 20.8701 16.8603 22.1242C18.1398 23.3669 19.4745 25.0587 20.8764 27.1348C23.6874 31.298 26.5852 36.7248 29.7335 42.573C32.8567 48.3746 36.206 54.5499 39.8574 60.0308C43.4971 65.4939 47.537 70.4239 52.1057 73.6361L54.4063 70.3639C50.4412 67.5761 46.7294 63.1311 43.1863 57.813C39.6551 52.5126 36.3906 46.5004 33.2556 40.677C30.1457 34.9002 27.1408 29.2645 24.1915 24.8964C22.7131 22.707 21.2032 20.7659 19.647 19.2547C18.1027 17.7549 16.396 16.5634 14.5099 16.0661L13.4901 19.9339ZM52.1057 73.6361C60.6352 79.633 74.0269 90.0451 86.1379 98.9254C92.1534 103.336 97.8386 107.357 102.358 110.187C104.612 111.599 106.629 112.748 108.282 113.502C109.106 113.878 109.896 114.182 110.615 114.364C111.277 114.53 112.146 114.666 112.987 114.419L111.862 110.581C112.063 110.522 112.043 110.599 111.593 110.485C111.199 110.386 110.653 110.187 109.942 109.863C108.526 109.217 106.681 108.175 104.481 106.797C100.093 104.049 94.5063 100.101 88.5032 95.6996C76.5771 86.9549 62.9446 76.367 54.4063 70.3639L52.1057 73.6361ZM112.987 114.419C112.895 114.446 113.055 114.348 113.657 114.678C114.238 114.997 114.98 115.582 115.878 116.474C117.665 118.249 119.735 120.899 121.97 123.985C126.334 130.012 131.324 137.731 135.391 142.325L138.386 139.675C134.487 135.269 129.806 127.988 125.21 121.64C122.964 118.538 120.732 115.658 118.697 113.636C117.683 112.629 116.634 111.749 115.581 111.172C114.55 110.605 113.234 110.179 111.862 110.581L112.987 114.419ZM135.391 142.325C137.785 145.031 141.932 146.843 146.449 148.127C151.055 149.436 156.424 150.295 161.633 150.863C172.06 152.001 182.109 152 184.678 152V148C182.127 148 172.263 147.999 162.067 146.887C156.964 146.33 151.844 145.502 147.542 144.279C143.152 143.032 139.975 141.469 138.386 139.675L135.391 142.325ZM184.678 152C184.671 152 184.781 152.002 185.041 152.102C185.293 152.199 185.617 152.361 186.019 152.607C186.826 153.102 187.799 153.845 188.917 154.801C191.153 156.714 193.744 159.279 196.432 161.925C199.085 164.537 201.832 167.225 204.283 169.258C205.509 170.275 206.715 171.174 207.842 171.828C208.917 172.451 210.166 173 211.418 173V169C211.248 169 210.755 168.893 209.849 168.368C208.996 167.873 207.984 167.131 206.837 166.179C204.541 164.275 201.918 161.713 199.238 159.075C196.592 156.471 193.885 153.786 191.516 151.761C190.332 150.748 189.176 149.851 188.109 149.197C187.113 148.586 185.902 148 184.678 148V152ZM211.418 173C211.427 173 211.435 173 211.444 173C211.453 173 211.462 173 211.471 173C211.48 173 211.49 173 211.499 173C211.508 173 211.517 173 211.527 173C211.536 173 211.546 173 211.555 173C211.565 173 211.575 173 211.584 173C211.594 173 211.604 173 211.614 173C211.624 173 211.634 173 211.644 173C211.654 173 211.664 173 211.675 173C211.685 173 211.695 173 211.706 173C211.716 173 211.727 173 211.737 173C211.748 173 211.759 173 211.769 173C211.78 173 211.791 173 211.802 173C211.813 173 211.824 173 211.835 173C211.846 173 211.858 173 211.869 173C211.88 173 211.891 173 211.903 173C211.914 173 211.926 173 211.938 173C211.949 173 211.961 173 211.973 173C211.984 173 211.996 173 212.008 173C212.02 173 212.032 173 212.044 173C212.057 173 212.069 173 212.081 173C212.093 173 212.106 173 212.118 173C212.131 173 212.143 173 212.156 173C212.168 173 212.181 173 212.194 173C212.207 173 212.22 173 212.232 173C212.245 173 212.258 173 212.272 173C212.285 173 212.298 173 212.311 173C212.324 173 212.338 173 212.351 173C212.365 173 212.378 173 212.392 173C212.405 173 212.419 173 212.433 173C212.446 173 212.46 173 212.474 173C212.488 173 212.502 173 212.516 173C212.53 173 212.544 173 212.558 173C212.573 173 212.587 173 212.601 173C212.616 173 212.63 173 212.645 173C212.659 173 212.674 173 212.689 173C212.703 173 212.718 173 212.733 173C212.748 173 212.763 173 212.778 173C212.793 173 212.808 173 212.823 173C212.838 173 212.853 173 212.869 173C212.884 173 212.899 173 212.915 173C212.93 173 212.946 173 212.961 173C212.977 173 212.993 173 213.008 173C213.024 173 213.04 173 213.056 173C213.072 173 213.088 173 213.104 173C213.12 173 213.136 173 213.152 173C213.169 173 213.185 173 213.201 173C213.218 173 213.234 173 213.251 173C213.267 173 213.284 173 213.3 173C213.317 173 213.334 173 213.351 173C213.367 173 213.384 173 213.401 173C213.418 173 213.435 173 213.452 173C213.469 173 213.487 173 213.504 173C213.521 173 213.539 173 213.556 173C213.573 173 213.591 173 213.608 173C213.626 173 213.644 173 213.661 173C213.679 173 213.697 173 213.715 173C213.732 173 213.75 173 213.768 173C213.786 173 213.804 173 213.822 173C213.841 173 213.859 173 213.877 173C213.895 173 213.914 173 213.932 173C213.951 173 213.969 173 213.988 173C214.006 173 214.025 173 214.043 173C214.062 173 214.081 173 214.1 173C214.119 173 214.138 173 214.157 173C214.176 173 214.195 173 214.214 173C214.233 173 214.252 173 214.271 173C214.291 173 214.31 173 214.329 173C214.349 173 214.368 173 214.388 173C214.407 173 214.427 173 214.446 173C214.466 173 214.486 173 214.506 173C214.526 173 214.545 173 214.565 173C214.585 173 214.605 173 214.625 173C214.645 173 214.666 173 214.686 173C214.706 173 214.726 173 214.747 173C214.767 173 214.788 173 214.808 173C214.828 173 214.849 173 214.87 173C214.89 173 214.911 173 214.932 173C214.953 173 214.973 173 214.994 173C215.015 173 215.036 173 215.057 173C215.078 173 215.099 173 215.12 173C215.142 173 215.163 173 215.184 173C215.205 173 215.227 173 215.248 173C215.269 173 215.291 173 215.313 173C215.334 173 215.356 173 215.377 173C215.399 173 215.421 173 215.443 173C215.464 173 215.486 173 215.508 173C215.53 173 215.552 173 215.574 173C215.596 173 215.618 173 215.641 173C215.663 173 215.685 173 215.707 173C215.73 173 215.752 173 215.774 173C215.797 173 215.819 173 215.842 173C215.865 173 215.887 173 215.91 173C215.933 173 215.955 173 215.978 173C216.001 173 216.024 173 216.047 173C216.07 173 216.093 173 216.116 173C216.139 173 216.162 173 216.185 173C216.208 173 216.232 173 216.255 173C216.278 173 216.302 173 216.325 173C216.348 173 216.372 173 216.395 173C216.419 173 216.443 173 216.466 173C216.49 173 216.514 173 216.537 173C216.561 173 216.585 173 216.609 173C216.633 173 216.657 173 216.681 173C216.705 173 216.729 173 216.753 173C216.777 173 216.802 173 216.826 173C216.85 173 216.874 173 216.899 173C216.923 173 216.948 173 216.972 173C216.997 173 217.021 173 217.046 173C217.07 173 217.095 173 217.12 173C217.145 173 217.169 173 217.194 173C217.219 173 217.244 173 217.269 173C217.294 173 217.319 173 217.344 173C217.369 173 217.394 173 217.419 173C217.445 173 217.47 173 217.495 173C217.521 173 217.546 173 217.571 173C217.597 173 217.622 173 217.648 173C217.673 173 217.699 173 217.725 173C217.75 173 217.776 173 217.802 173C217.827 173 217.853 173 217.879 173C217.905 173 217.931 173 217.957 173C217.983 173 218.009 173 218.035 173C218.061 173 218.087 173 218.113 173C218.14 173 218.166 173 218.192 173C218.218 173 218.245 173 218.271 173C218.298 173 218.324 173 218.351 173C218.377 173 218.404 173 218.43 173C218.457 173 218.484 173 218.51 173C218.537 173 218.564 173 218.591 173C218.617 173 218.644 173 218.671 173C218.698 173 218.725 173 218.752 173C218.779 173 218.806 173 218.834 173C218.861 173 218.888 173 218.915 173C218.942 173 218.97 173 218.997 173C219.024 173 219.052 173 219.079 173C219.107 173 219.134 173 219.162 173C219.189 173 219.217 173 219.245 173C219.272 173 219.3 173 219.328 173C219.355 173 219.383 173 219.411 173C219.439 173 219.467 173 219.495 173C219.523 173 219.551 173 219.579 173C219.607 173 219.635 173 219.663 173C219.691 173 219.72 173 219.748 173C219.776 173 219.804 173 219.833 173C219.861 173 219.89 173 219.918 173C219.946 173 219.975 173 220.003 173C220.032 173 220.061 173 220.089 173C220.118 173 220.147 173 220.175 173C220.204 173 220.233 173 220.262 173C220.29 173 220.319 173 220.348 173C220.377 173 220.406 173 220.435 173C220.464 173 220.493 173 220.522 173C220.551 173 220.581 173 220.61 173C220.639 173 220.668 173 220.698 173C220.727 173 220.756 173 220.786 173C220.815 173 220.844 173 220.874 173C220.903 173 220.933 173 220.963 173C220.992 173 221.022 173 221.051 173C221.081 173 221.111 173 221.14 173C221.17 173 221.2 173 221.23 173C221.26 173 221.29 173 221.319 173C221.349 173 221.379 173 221.409 173C221.439 173 221.469 173 221.5 173C221.53 173 221.56 173 221.59 173C221.62 173 221.65 173 221.681 173C221.711 173 221.741 173 221.772 173C221.802 173 221.832 173 221.863 173C221.893 173 221.924 173 221.954 173C221.985 173 222.015 173 222.046 173C222.077 173 222.107 173 222.138 173C222.169 173 222.199 173 222.23 173C222.261 173 222.292 173 222.323 173C222.353 173 222.384 173 222.415 173C222.446 173 222.477 173 222.508 173C222.539 173 222.57 173 222.601 173C222.632 173 222.664 173 222.695 173C222.726 173 222.757 173 222.788 173C222.82 173 222.851 173 222.882 173C222.914 173 222.945 173 222.976 173C223.008 173 223.039 173 223.071 173C223.102 173 223.134 173 223.165 173C223.197 173 223.229 173 223.26 173C223.292 173 223.324 173 223.355 173C223.387 173 223.419 173 223.451 173C223.482 173 223.514 173 223.546 173C223.578 173 223.61 173 223.642 173C223.674 173 223.706 173 223.738 173C223.77 173 223.802 173 223.834 173C223.866 173 223.898 173 223.93 173C223.963 173 223.995 173 224.027 173C224.059 173 224.092 173 224.124 173C224.156 173 224.189 173 224.221 173C224.253 173 224.286 173 224.318 173C224.351 173 224.383 173 224.416 173C224.448 173 224.481 173 224.513 173C224.546 173 224.579 173 224.611 173C224.644 173 224.677 173 224.709 173C224.742 173 224.775 173 224.808 173C224.84 173 224.873 173 224.906 173C224.939 173 224.972 173 225.005 173C225.038 173 225.071 173 225.104 173C225.137 173 225.17 173 225.203 173C225.236 173 225.269 173 225.302 173C225.335 173 225.368 173 225.402 173C225.435 173 225.468 173 225.501 173C225.535 173 225.568 173 225.601 173C225.635 173 225.668 173 225.701 173C225.735 173 225.768 173 225.802 173C225.835 173 225.869 173 225.902 173C225.936 173 225.969 173 226.003 173C226.036 173 226.07 173 226.103 173C226.137 173 226.171 173 226.204 173C226.238 173 226.272 173 226.306 173C226.339 173 226.373 173 226.407 173C226.441 173 226.475 173 226.509 173C226.542 173 226.576 173 226.61 173C226.644 173 226.678 173 226.712 173C226.746 173 226.78 173 226.814 173C226.848 173 226.882 173 226.916 173C226.951 173 226.985 173 227.019 173C227.053 173 227.087 173 227.121 173C227.156 173 227.19 173 227.224 173C227.258 173 227.293 173 227.327 173C227.361 173 227.396 173 227.43 173C227.464 173 227.499 173 227.533 173C227.568 173 227.602 173 227.637 173C227.671 173 227.706 173 227.74 173C227.775 173 227.809 173 227.844 173C227.878 173 227.913 173 227.948 173C227.982 173 228.017 173 228.052 173C228.086 173 228.121 173 228.156 173C228.191 173 228.225 173 228.26 173C228.295 173 228.33 173 228.365 173C228.399 173 228.434 173 228.469 173C228.504 173 228.539 173 228.574 173C228.609 173 228.644 173 228.679 173C228.714 173 228.749 173 228.784 173C228.819 173 228.854 173 228.889 173C228.924 173 228.959 173 228.994 173C229.029 173 229.064 173 229.1 173C229.135 173 229.17 173 229.205 173C229.24 173 229.276 173 229.311 173C229.346 173 229.381 173 229.417 173C229.452 173 229.487 173 229.523 173C229.558 173 229.593 173 229.629 173C229.664 173 229.699 173 229.735 173C229.77 173 229.806 173 229.841 173C229.877 173 229.912 173 229.948 173C229.983 173 230.019 173 230.054 173C230.09 173 230.125 173 230.161 173C230.197 173 230.232 173 230.268 173C230.303 173 230.339 173 230.375 173C230.41 173 230.446 173 230.482 173C230.517 173 230.553 173 230.589 173C230.625 173 230.66 173 230.696 173C230.732 173 230.768 173 230.804 173C230.839 173 230.875 173 230.911 173C230.947 173 230.983 173 231.019 173C231.055 173 231.09 173 231.126 173C231.162 173 231.198 173 231.234 173C231.27 173 231.306 173 231.342 173C231.378 173 231.414 173 231.45 173C231.486 173 231.522 173 231.558 173C231.594 173 231.63 173 231.666 173C231.702 173 231.739 173 231.775 173C231.811 173 231.847 173 231.883 173C231.919 173 231.955 173 231.992 173C232.028 173 232.064 173 232.1 173C232.136 173 232.173 173 232.209 173C232.245 173 232.281 173 232.318 173C232.354 173 232.39 173 232.426 173C232.463 173 232.499 173 232.535 173C232.572 173 232.608 173 232.644 173C232.681 173 232.717 173 232.753 173C232.79 173 232.826 173 232.863 173C232.899 173 232.935 173 232.972 173C233.008 173 233.045 173 233.081 173C233.117 173 233.154 173 233.19 173C233.227 173 233.263 173 233.3 173C233.336 173 233.373 173 233.409 173C233.446 173 233.482 173 233.519 173C233.556 173 233.592 173 233.629 173C233.665 173 233.702 173 233.738 173C233.775 173 233.812 173 233.848 173C233.885 173 233.921 173 233.958 173C233.995 173 234.031 173 234.068 173C234.105 173 234.141 173 234.178 173C234.215 173 234.251 173 234.288 173C234.325 173 234.361 173 234.398 173C234.435 173 234.471 173 234.508 173C234.545 173 234.582 173 234.618 173C234.655 173 234.692 173 234.729 173C234.765 173 234.802 173 234.839 173C234.876 173 234.913 173 234.949 173C234.986 173 235.023 173 235.06 173C235.097 173 235.133 173 235.17 173C235.207 173 235.244 173 235.281 173C235.317 173 235.354 173 235.391 173C235.428 173 235.465 173 235.502 173C235.539 173 235.575 173 235.612 173C235.649 173 235.686 173 235.723 173C235.76 173 235.797 173 235.834 173C235.871 173 235.907 173 235.944 173C235.981 173 236.018 173 236.055 173C236.092 173 236.129 173 236.166 173C236.203 173 236.24 173 236.277 173C236.314 173 236.35 173 236.387 173C236.424 173 236.461 173 236.498 173C236.535 173 236.572 173 236.609 173C236.646 173 236.683 173 236.72 173C236.757 173 236.794 173 236.831 173C236.868 173 236.905 173 236.942 173C236.979 173 237.016 173 237.053 173C237.09 173 237.127 173 237.164 173C237.201 173 237.238 173 237.275 173C237.312 173 237.349 173 237.386 173C237.423 173 237.46 173 237.497 173C237.534 173 237.571 173 237.608 173C237.645 173 237.682 173 237.719 173C237.756 173 237.793 173 237.83 173C237.867 173 237.904 173 237.941 173C237.978 173 238.015 173 238.052 173C238.089 173 238.126 173 238.163 173C238.2 173 238.237 173 238.274 173C238.311 173 238.348 173 238.385 173C238.422 173 238.459 173 238.496 173C238.533 173 238.57 173 238.607 173C238.644 173 238.681 173 238.718 173C238.755 173 238.792 173 238.829 173C238.866 173 238.903 173 238.94 173C238.977 173 239.014 173 239.051 173C239.088 173 239.125 173 239.162 173C239.199 173 239.236 173 239.273 173C239.31 173 239.347 173 239.384 173C239.421 173 239.458 173 239.495 173C239.532 173 239.568 173 239.605 173C239.642 173 239.679 173 239.716 173C239.753 173 239.79 173 239.827 173C239.864 173 239.901 173 239.938 173C239.975 173 240.012 173 240.049 173C240.086 173 240.123 173 240.159 173C240.196 173 240.233 173 240.27 173C240.307 173 240.344 173 240.381 173C240.418 173 240.455 173 240.492 173C240.528 173 240.565 173 240.602 173C240.639 173 240.676 173 240.713 173C240.75 173 240.786 173 240.823 173C240.86 173 240.897 173 240.934 173C240.971 173 241.007 173 241.044 173C241.081 173 241.118 173 241.155 173C241.191 173 241.228 173 241.265 173C241.302 173 241.339 173 241.375 173C241.412 173 241.449 173 241.486 173C241.522 173 241.559 173 241.596 173C241.633 173 241.669 173 241.706 173C241.743 173 241.779 173 241.816 173C241.853 173 241.89 173 241.926 173C241.963 173 242 173 242.036 173C242.073 173 242.11 173 242.146 173C242.183 173 242.219 173 242.256 173C242.293 173 242.329 173 242.366 173C242.403 173 242.439 173 242.476 173C242.512 173 242.549 173 242.585 173C242.622 173 242.658 173 242.695 173C242.732 173 242.768 173 242.805 173C242.841 173 242.878 173 242.914 173C242.951 173 242.987 173 243.023 173C243.06 173 243.096 173 243.133 173C243.169 173 243.206 173 243.242 173C243.279 173 243.315 173 243.351 173C243.388 173 243.424 173 243.46 173C243.497 173 243.533 173 243.57 173C243.606 173 243.642 173 243.678 173C243.715 173 243.751 173 243.787 173C243.824 173 243.86 173 243.896 173C243.932 173 243.969 173 244.005 173C244.041 173 244.077 173 244.113 173C244.15 173 244.186 173 244.222 173C244.258 173 244.294 173 244.33 173C244.367 173 244.403 173 244.439 173C244.475 173 244.511 173 244.547 173C244.583 173 244.619 173 244.655 173C244.691 173 244.727 173 244.763 173C244.799 173 244.835 173 244.871 173C244.907 173 244.943 173 244.979 173C245.015 173 245.051 173 245.087 173C245.123 173 245.159 173 245.194 173C245.23 173 245.266 173 245.302 173C245.338 173 245.374 173 245.409 173C245.445 173 245.481 173 245.517 173C245.553 173 245.588 173 245.624 173C245.66 173 245.695 173 245.731 173C245.767 173 245.802 173 245.838 173C245.874 173 245.909 173 245.945 173C245.981 173 246.016 173 246.052 173C246.087 173 246.123 173 246.158 173C246.194 173 246.229 173 246.265 173C246.3 173 246.336 173 246.371 173C246.407 173 246.442 173 246.478 173C246.513 173 246.548 173 246.584 173C246.619 173 246.654 173 246.69 173C246.725 173 246.76 173 246.796 173C246.831 173 246.866 173 246.901 173C246.937 173 246.972 173 247.007 173C247.042 173 247.077 173 247.113 173C247.148 173 247.183 173 247.218 173C247.253 173 247.288 173 247.323 173C247.358 173 247.393 173 247.428 173C247.463 173 247.498 173 247.533 173C247.568 173 247.603 173 247.638 173C247.673 173 247.708 173 247.743 173C247.778 173 247.812 173 247.847 173C247.882 173 247.917 173 247.952 173C247.986 173 248.021 173 248.056 173C248.091 173 248.125 173 248.16 173C248.195 173 248.229 173 248.264 173C248.298 173 248.333 173 248.368 173C248.402 173 248.437 173 248.471 173C248.506 173 248.54 173 248.575 173C248.609 173 248.644 173 248.678 173C248.712 173 248.747 173 248.781 173C248.815 173 248.85 173 248.884 173C248.918 173 248.953 173 248.987 173C249.021 173 249.055 173 249.09 173C249.124 173 249.158 173 249.192 173C249.226 173 249.26 173 249.294 173C249.328 173 249.362 173 249.396 173C249.431 173 249.465 173 249.498 173C249.532 173 249.566 173 249.6 173C249.634 173 249.668 173 249.702 173C249.736 173 249.77 173 249.803 173C249.837 173 249.871 173 249.905 173C249.938 173 249.972 173 250.006 173C250.039 173 250.073 173 250.107 173C250.14 173 250.174 173 250.207 173C250.241 173 250.274 173 250.308 173C250.341 173 250.375 173 250.408 173C250.442 173 250.475 173 250.508 173C250.542 173 250.575 173 250.608 173C250.642 173 250.675 173 250.708 173C250.742 173 250.775 173 250.808 173C250.841 173 250.874 173 250.907 173C250.94 173 250.973 173 251.007 173C251.04 173 251.073 173 251.106 173C251.139 173 251.171 173 251.204 173C251.237 173 251.27 173 251.303 173C251.336 173 251.369 173 251.401 173C251.434 173 251.467 173 251.5 173C251.532 173 251.565 173 251.598 173C251.63 173 251.663 173 251.695 173C251.728 173 251.76 173 251.793 173C251.825 173 251.858 173 251.89 173C251.923 173 251.955 173 251.988 173C252.02 173 252.052 173 252.085 173C252.117 173 252.149 173 252.181 173C252.213 173 252.246 173 252.278 173C252.31 173 252.342 173 252.374 173C252.406 173 252.438 173 252.47 173C252.502 173 252.534 173 252.566 173C252.598 173 252.63 173 252.662 173C252.693 173 252.725 173 252.757 173C252.789 173 252.821 173 252.852 173C252.884 173 252.916 173 252.947 173C252.979 173 253.01 173 253.042 173C253.073 173 253.105 173 253.136 173C253.168 173 253.199 173 253.231 173C253.262 173 253.293 173 253.325 173C253.356 173 253.387 173 253.419 173C253.45 173 253.481 173 253.512 173C253.543 173 253.574 173 253.605 173C253.636 173 253.667 173 253.698 173C253.729 173 253.76 173 253.791 173C253.822 173 253.853 173 253.884 173C253.915 173 253.945 173 253.976 173C254.007 173 254.038 173 254.068 173C254.099 173 254.13 173 254.16 173C254.191 173 254.221 173 254.252 173C254.282 173 254.313 173 254.343 173C254.374 173 254.404 173 254.434 173C254.465 173 254.495 173 254.525 173C254.555 173 254.585 173 254.616 173C254.646 173 254.676 173 254.706 173C254.736 173 254.766 173 254.796 173C254.826 173 254.856 173 254.886 173C254.916 173 254.945 173 254.975 173C255.005 173 255.035 173 255.065 173C255.094 173 255.124 173 255.154 173C255.183 173 255.213 173 255.242 173C255.272 173 255.301 173 255.331 173C255.36 173 255.39 173 255.419 173C255.448 173 255.478 173 255.507 173C255.536 173 255.565 173 255.594 173C255.624 173 255.653 173 255.682 173C255.711 173 255.74 173 255.769 173C255.798 173 255.827 173 255.856 173C255.884 173 255.913 173 255.942 173C255.971 173 256 173 256.028 173C256.057 173 256.086 173 256.114 173C256.143 173 256.171 173 256.2 173C256.228 173 256.257 173 256.285 173C256.314 173 256.342 173 256.37 173C256.399 173 256.427 173 256.455 173C256.483 173 256.512 173 256.54 173C256.568 173 256.596 173 256.624 173C256.652 173 256.68 173 256.708 173C256.736 173 256.764 173 256.791 173C256.819 173 256.847 173 256.875 173C256.902 173 256.93 173 256.958 173C256.985 173 257.013 173 257.04 173C257.068 173 257.095 173 257.123 173C257.15 173 257.177 173 257.205 173C257.232 173 257.259 173 257.287 173V169C257.259 169 257.232 169 257.205 169C257.177 169 257.15 169 257.123 169C257.095 169 257.068 169 257.04 169C257.013 169 256.985 169 256.958 169C256.93 169 256.902 169 256.875 169C256.847 169 256.819 169 256.791 169C256.764 169 256.736 169 256.708 169C256.68 169 256.652 169 256.624 169C256.596 169 256.568 169 256.54 169C256.512 169 256.483 169 256.455 169C256.427 169 256.399 169 256.37 169C256.342 169 256.314 169 256.285 169C256.257 169 256.228 169 256.2 169C256.171 169 256.143 169 256.114 169C256.086 169 256.057 169 256.028 169C256 169 255.971 169 255.942 169C255.913 169 255.884 169 255.856 169C255.827 169 255.798 169 255.769 169C255.74 169 255.711 169 255.682 169C255.653 169 255.624 169 255.594 169C255.565 169 255.536 169 255.507 169C255.478 169 255.448 169 255.419 169C255.39 169 255.36 169 255.331 169C255.301 169 255.272 169 255.242 169C255.213 169 255.183 169 255.154 169C255.124 169 255.094 169 255.065 169C255.035 169 255.005 169 254.975 169C254.945 169 254.916 169 254.886 169C254.856 169 254.826 169 254.796 169C254.766 169 254.736 169 254.706 169C254.676 169 254.646 169 254.616 169C254.585 169 254.555 169 254.525 169C254.495 169 254.465 169 254.434 169C254.404 169 254.374 169 254.343 169C254.313 169 254.282 169 254.252 169C254.221 169 254.191 169 254.16 169C254.13 169 254.099 169 254.068 169C254.038 169 254.007 169 253.976 169C253.945 169 253.915 169 253.884 169C253.853 169 253.822 169 253.791 169C253.76 169 253.729 169 253.698 169C253.667 169 253.636 169 253.605 169C253.574 169 253.543 169 253.512 169C253.481 169 253.45 169 253.419 169C253.387 169 253.356 169 253.325 169C253.293 169 253.262 169 253.231 169C253.199 169 253.168 169 253.136 169C253.105 169 253.073 169 253.042 169C253.01 169 252.979 169 252.947 169C252.916 169 252.884 169 252.852 169C252.821 169 252.789 169 252.757 169C252.725 169 252.693 169 252.662 169C252.63 169 252.598 169 252.566 169C252.534 169 252.502 169 252.47 169C252.438 169 252.406 169 252.374 169C252.342 169 252.31 169 252.278 169C252.246 169 252.213 169 252.181 169C252.149 169 252.117 169 252.085 169C252.052 169 252.02 169 251.988 169C251.955 169 251.923 169 251.89 169C251.858 169 251.825 169 251.793 169C251.76 169 251.728 169 251.695 169C251.663 169 251.63 169 251.598 169C251.565 169 251.532 169 251.5 169C251.467 169 251.434 169 251.401 169C251.369 169 251.336 169 251.303 169C251.27 169 251.237 169 251.204 169C251.171 169 251.139 169 251.106 169C251.073 169 251.04 169 251.007 169C250.973 169 250.94 169 250.907 169C250.874 169 250.841 169 250.808 169C250.775 169 250.742 169 250.708 169C250.675 169 250.642 169 250.608 169C250.575 169 250.542 169 250.508 169C250.475 169 250.442 169 250.408 169C250.375 169 250.341 169 250.308 169C250.274 169 250.241 169 250.207 169C250.174 169 250.14 169 250.107 169C250.073 169 250.039 169 250.006 169C249.972 169 249.938 169 249.905 169C249.871 169 249.837 169 249.803 169C249.77 169 249.736 169 249.702 169C249.668 169 249.634 169 249.6 169C249.566 169 249.532 169 249.498 169C249.465 169 249.431 169 249.396 169C249.362 169 249.328 169 249.294 169C249.26 169 249.226 169 249.192 169C249.158 169 249.124 169 249.09 169C249.055 169 249.021 169 248.987 169C248.953 169 248.918 169 248.884 169C248.85 169 248.815 169 248.781 169C248.747 169 248.712 169 248.678 169C248.644 169 248.609 169 248.575 169C248.54 169 248.506 169 248.471 169C248.437 169 248.402 169 248.368 169C248.333 169 248.298 169 248.264 169C248.229 169 248.195 169 248.16 169C248.125 169 248.091 169 248.056 169C248.021 169 247.986 169 247.952 169C247.917 169 247.882 169 247.847 169C247.812 169 247.778 169 247.743 169C247.708 169 247.673 169 247.638 169C247.603 169 247.568 169 247.533 169C247.498 169 247.463 169 247.428 169C247.393 169 247.358 169 247.323 169C247.288 169 247.253 169 247.218 169C247.183 169 247.148 169 247.113 169C247.077 169 247.042 169 247.007 169C246.972 169 246.937 169 246.901 169C246.866 169 246.831 169 246.796 169C246.76 169 246.725 169 246.69 169C246.654 169 246.619 169 246.584 169C246.548 169 246.513 169 246.478 169C246.442 169 246.407 169 246.371 169C246.336 169 246.3 169 246.265 169C246.229 169 246.194 169 246.158 169C246.123 169 246.087 169 246.052 169C246.016 169 245.981 169 245.945 169C245.909 169 245.874 169 245.838 169C245.802 169 245.767 169 245.731 169C245.695 169 245.66 169 245.624 169C245.588 169 245.553 169 245.517 169C245.481 169 245.445 169 245.409 169C245.374 169 245.338 169 245.302 169C245.266 169 245.23 169 245.194 169C245.159 169 245.123 169 245.087 169C245.051 169 245.015 169 244.979 169C244.943 169 244.907 169 244.871 169C244.835 169 244.799 169 244.763 169C244.727 169 244.691 169 244.655 169C244.619 169 244.583 169 244.547 169C244.511 169 244.475 169 244.439 169C244.403 169 244.367 169 244.33 169C244.294 169 244.258 169 244.222 169C244.186 169 244.15 169 244.113 169C244.077 169 244.041 169 244.005 169C243.969 169 243.932 169 243.896 169C243.86 169 243.824 169 243.787 169C243.751 169 243.715 169 243.678 169C243.642 169 243.606 169 243.57 169C243.533 169 243.497 169 243.46 169C243.424 169 243.388 169 243.351 169C243.315 169 243.279 169 243.242 169C243.206 169 243.169 169 243.133 169C243.096 169 243.06 169 243.023 169C242.987 169 242.951 169 242.914 169C242.878 169 242.841 169 242.805 169C242.768 169 242.732 169 242.695 169C242.658 169 242.622 169 242.585 169C242.549 169 242.512 169 242.476 169C242.439 169 242.403 169 242.366 169C242.329 169 242.293 169 242.256 169C242.219 169 242.183 169 242.146 169C242.11 169 242.073 169 242.036 169C242 169 241.963 169 241.926 169C241.89 169 241.853 169 241.816 169C241.779 169 241.743 169 241.706 169C241.669 169 241.633 169 241.596 169C241.559 169 241.522 169 241.486 169C241.449 169 241.412 169 241.375 169C241.339 169 241.302 169 241.265 169C241.228 169 241.191 169 241.155 169C241.118 169 241.081 169 241.044 169C241.007 169 240.971 169 240.934 169C240.897 169 240.86 169 240.823 169C240.786 169 240.75 169 240.713 169C240.676 169 240.639 169 240.602 169C240.565 169 240.528 169 240.492 169C240.455 169 240.418 169 240.381 169C240.344 169 240.307 169 240.27 169C240.233 169 240.196 169 240.159 169C240.123 169 240.086 169 240.049 169C240.012 169 239.975 169 239.938 169C239.901 169 239.864 169 239.827 169C239.79 169 239.753 169 239.716 169C239.679 169 239.642 169 239.605 169C239.568 169 239.532 169 239.495 169C239.458 169 239.421 169 239.384 169C239.347 169 239.31 169 239.273 169C239.236 169 239.199 169 239.162 169C239.125 169 239.088 169 239.051 169C239.014 169 238.977 169 238.94 169C238.903 169 238.866 169 238.829 169C238.792 169 238.755 169 238.718 169C238.681 169 238.644 169 238.607 169C238.57 169 238.533 169 238.496 169C238.459 169 238.422 169 238.385 169C238.348 169 238.311 169 238.274 169C238.237 169 238.2 169 238.163 169C238.126 169 238.089 169 238.052 169C238.015 169 237.978 169 237.941 169C237.904 169 237.867 169 237.83 169C237.793 169 237.756 169 237.719 169C237.682 169 237.645 169 237.608 169C237.571 169 237.534 169 237.497 169C237.46 169 237.423 169 237.386 169C237.349 169 237.312 169 237.275 169C237.238 169 237.201 169 237.164 169C237.127 169 237.09 169 237.053 169C237.016 169 236.979 169 236.942 169C236.905 169 236.868 169 236.831 169C236.794 169 236.757 169 236.72 169C236.683 169 236.646 169 236.609 169C236.572 169 236.535 169 236.498 169C236.461 169 236.424 169 236.387 169C236.35 169 236.314 169 236.277 169C236.24 169 236.203 169 236.166 169C236.129 169 236.092 169 236.055 169C236.018 169 235.981 169 235.944 169C235.907 169 235.871 169 235.834 169C235.797 169 235.76 169 235.723 169C235.686 169 235.649 169 235.612 169C235.575 169 235.539 169 235.502 169C235.465 169 235.428 169 235.391 169C235.354 169 235.317 169 235.281 169C235.244 169 235.207 169 235.17 169C235.133 169 235.097 169 235.06 169C235.023 169 234.986 169 234.949 169C234.913 169 234.876 169 234.839 169C234.802 169 234.765 169 234.729 169C234.692 169 234.655 169 234.618 169C234.582 169 234.545 169 234.508 169C234.471 169 234.435 169 234.398 169C234.361 169 234.325 169 234.288 169C234.251 169 234.215 169 234.178 169C234.141 169 234.105 169 234.068 169C234.031 169 233.995 169 233.958 169C233.921 169 233.885 169 233.848 169C233.812 169 233.775 169 233.738 169C233.702 169 233.665 169 233.629 169C233.592 169 233.556 169 233.519 169C233.482 169 233.446 169 233.409 169C233.373 169 233.336 169 233.3 169C233.263 169 233.227 169 233.19 169C233.154 169 233.117 169 233.081 169C233.045 169 233.008 169 232.972 169C232.935 169 232.899 169 232.863 169C232.826 169 232.79 169 232.753 169C232.717 169 232.681 169 232.644 169C232.608 169 232.572 169 232.535 169C232.499 169 232.463 169 232.426 169C232.39 169 232.354 169 232.318 169C232.281 169 232.245 169 232.209 169C232.173 169 232.136 169 232.1 169C232.064 169 232.028 169 231.992 169C231.955 169 231.919 169 231.883 169C231.847 169 231.811 169 231.775 169C231.739 169 231.702 169 231.666 169C231.63 169 231.594 169 231.558 169C231.522 169 231.486 169 231.45 169C231.414 169 231.378 169 231.342 169C231.306 169 231.27 169 231.234 169C231.198 169 231.162 169 231.126 169C231.09 169 231.055 169 231.019 169C230.983 169 230.947 169 230.911 169C230.875 169 230.839 169 230.804 169C230.768 169 230.732 169 230.696 169C230.66 169 230.625 169 230.589 169C230.553 169 230.517 169 230.482 169C230.446 169 230.41 169 230.375 169C230.339 169 230.303 169 230.268 169C230.232 169 230.197 169 230.161 169C230.125 169 230.09 169 230.054 169C230.019 169 229.983 169 229.948 169C229.912 169 229.877 169 229.841 169C229.806 169 229.77 169 229.735 169C229.699 169 229.664 169 229.629 169C229.593 169 229.558 169 229.523 169C229.487 169 229.452 169 229.417 169C229.381 169 229.346 169 229.311 169C229.276 169 229.24 169 229.205 169C229.17 169 229.135 169 229.1 169C229.064 169 229.029 169 228.994 169C228.959 169 228.924 169 228.889 169C228.854 169 228.819 169 228.784 169C228.749 169 228.714 169 228.679 169C228.644 169 228.609 169 228.574 169C228.539 169 228.504 169 228.469 169C228.434 169 228.399 169 228.365 169C228.33 169 228.295 169 228.26 169C228.225 169 228.191 169 228.156 169C228.121 169 228.086 169 228.052 169C228.017 169 227.982 169 227.948 169C227.913 169 227.878 169 227.844 169C227.809 169 227.775 169 227.74 169C227.706 169 227.671 169 227.637 169C227.602 169 227.568 169 227.533 169C227.499 169 227.464 169 227.43 169C227.396 169 227.361 169 227.327 169C227.293 169 227.258 169 227.224 169C227.19 169 227.156 169 227.121 169C227.087 169 227.053 169 227.019 169C226.985 169 226.951 169 226.916 169C226.882 169 226.848 169 226.814 169C226.78 169 226.746 169 226.712 169C226.678 169 226.644 169 226.61 169C226.576 169 226.542 169 226.509 169C226.475 169 226.441 169 226.407 169C226.373 169 226.339 169 226.306 169C226.272 169 226.238 169 226.204 169C226.171 169 226.137 169 226.103 169C226.07 169 226.036 169 226.003 169C225.969 169 225.936 169 225.902 169C225.869 169 225.835 169 225.802 169C225.768 169 225.735 169 225.701 169C225.668 169 225.635 169 225.601 169C225.568 169 225.535 169 225.501 169C225.468 169 225.435 169 225.402 169C225.368 169 225.335 169 225.302 169C225.269 169 225.236 169 225.203 169C225.17 169 225.137 169 225.104 169C225.071 169 225.038 169 225.005 169C224.972 169 224.939 169 224.906 169C224.873 169 224.84 169 224.808 169C224.775 169 224.742 169 224.709 169C224.677 169 224.644 169 224.611 169C224.579 169 224.546 169 224.513 169C224.481 169 224.448 169 224.416 169C224.383 169 224.351 169 224.318 169C224.286 169 224.253 169 224.221 169C224.189 169 224.156 169 224.124 169C224.092 169 224.059 169 224.027 169C223.995 169 223.963 169 223.93 169C223.898 169 223.866 169 223.834 169C223.802 169 223.77 169 223.738 169C223.706 169 223.674 169 223.642 169C223.61 169 223.578 169 223.546 169C223.514 169 223.482 169 223.451 169C223.419 169 223.387 169 223.355 169C223.324 169 223.292 169 223.26 169C223.229 169 223.197 169 223.165 169C223.134 169 223.102 169 223.071 169C223.039 169 223.008 169 222.976 169C222.945 169 222.914 169 222.882 169C222.851 169 222.82 169 222.788 169C222.757 169 222.726 169 222.695 169C222.664 169 222.632 169 222.601 169C222.57 169 222.539 169 222.508 169C222.477 169 222.446 169 222.415 169C222.384 169 222.353 169 222.323 169C222.292 169 222.261 169 222.23 169C222.199 169 222.169 169 222.138 169C222.107 169 222.077 169 222.046 169C222.015 169 221.985 169 221.954 169C221.924 169 221.893 169 221.863 169C221.832 169 221.802 169 221.772 169C221.741 169 221.711 169 221.681 169C221.65 169 221.62 169 221.59 169C221.56 169 221.53 169 221.5 169C221.469 169 221.439 169 221.409 169C221.379 169 221.349 169 221.319 169C221.29 169 221.26 169 221.23 169C221.2 169 221.17 169 221.14 169C221.111 169 221.081 169 221.051 169C221.022 169 220.992 169 220.963 169C220.933 169 220.903 169 220.874 169C220.844 169 220.815 169 220.786 169C220.756 169 220.727 169 220.698 169C220.668 169 220.639 169 220.61 169C220.581 169 220.551 169 220.522 169C220.493 169 220.464 169 220.435 169C220.406 169 220.377 169 220.348 169C220.319 169 220.29 169 220.262 169C220.233 169 220.204 169 220.175 169C220.147 169 220.118 169 220.089 169C220.061 169 220.032 169 220.003 169C219.975 169 219.946 169 219.918 169C219.89 169 219.861 169 219.833 169C219.804 169 219.776 169 219.748 169C219.72 169 219.691 169 219.663 169C219.635 169 219.607 169 219.579 169C219.551 169 219.523 169 219.495 169C219.467 169 219.439 169 219.411 169C219.383 169 219.355 169 219.328 169C219.3 169 219.272 169 219.245 169C219.217 169 219.189 169 219.162 169C219.134 169 219.107 169 219.079 169C219.052 169 219.024 169 218.997 169C218.97 169 218.942 169 218.915 169C218.888 169 218.861 169 218.834 169C218.806 169 218.779 169 218.752 169C218.725 169 218.698 169 218.671 169C218.644 169 218.617 169 218.591 169C218.564 169 218.537 169 218.51 169C218.484 169 218.457 169 218.43 169C218.404 169 218.377 169 218.351 169C218.324 169 218.298 169 218.271 169C218.245 169 218.218 169 218.192 169C218.166 169 218.14 169 218.113 169C218.087 169 218.061 169 218.035 169C218.009 169 217.983 169 217.957 169C217.931 169 217.905 169 217.879 169C217.853 169 217.827 169 217.802 169C217.776 169 217.75 169 217.725 169C217.699 169 217.673 169 217.648 169C217.622 169 217.597 169 217.571 169C217.546 169 217.521 169 217.495 169C217.47 169 217.445 169 217.419 169C217.394 169 217.369 169 217.344 169C217.319 169 217.294 169 217.269 169C217.244 169 217.219 169 217.194 169C217.169 169 217.145 169 217.12 169C217.095 169 217.07 169 217.046 169C217.021 169 216.997 169 216.972 169C216.948 169 216.923 169 216.899 169C216.874 169 216.85 169 216.826 169C216.802 169 216.777 169 216.753 169C216.729 169 216.705 169 216.681 169C216.657 169 216.633 169 216.609 169C216.585 169 216.561 169 216.537 169C216.514 169 216.49 169 216.466 169C216.443 169 216.419 169 216.395 169C216.372 169 216.348 169 216.325 169C216.302 169 216.278 169 216.255 169C216.232 169 216.208 169 216.185 169C216.162 169 216.139 169 216.116 169C216.093 169 216.07 169 216.047 169C216.024 169 216.001 169 215.978 169C215.955 169 215.933 169 215.91 169C215.887 169 215.865 169 215.842 169C215.819 169 215.797 169 215.774 169C215.752 169 215.73 169 215.707 169C215.685 169 215.663 169 215.641 169C215.618 169 215.596 169 215.574 169C215.552 169 215.53 169 215.508 169C215.486 169 215.464 169 215.443 169C215.421 169 215.399 169 215.377 169C215.356 169 215.334 169 215.313 169C215.291 169 215.269 169 215.248 169C215.227 169 215.205 169 215.184 169C215.163 169 215.142 169 215.12 169C215.099 169 215.078 169 215.057 169C215.036 169 215.015 169 214.994 169C214.973 169 214.953 169 214.932 169C214.911 169 214.89 169 214.87 169C214.849 169 214.828 169 214.808 169C214.788 169 214.767 169 214.747 169C214.726 169 214.706 169 214.686 169C214.666 169 214.645 169 214.625 169C214.605 169 214.585 169 214.565 169C214.545 169 214.526 169 214.506 169C214.486 169 214.466 169 214.446 169C214.427 169 214.407 169 214.388 169C214.368 169 214.349 169 214.329 169C214.31 169 214.291 169 214.271 169C214.252 169 214.233 169 214.214 169C214.195 169 214.176 169 214.157 169C214.138 169 214.119 169 214.1 169C214.081 169 214.062 169 214.043 169C214.025 169 214.006 169 213.988 169C213.969 169 213.951 169 213.932 169C213.914 169 213.895 169 213.877 169C213.859 169 213.841 169 213.822 169C213.804 169 213.786 169 213.768 169C213.75 169 213.732 169 213.715 169C213.697 169 213.679 169 213.661 169C213.644 169 213.626 169 213.608 169C213.591 169 213.573 169 213.556 169C213.539 169 213.521 169 213.504 169C213.487 169 213.469 169 213.452 169C213.435 169 213.418 169 213.401 169C213.384 169 213.367 169 213.351 169C213.334 169 213.317 169 213.3 169C213.284 169 213.267 169 213.251 169C213.234 169 213.218 169 213.201 169C213.185 169 213.169 169 213.152 169C213.136 169 213.12 169 213.104 169C213.088 169 213.072 169 213.056 169C213.04 169 213.024 169 213.008 169C212.993 169 212.977 169 212.961 169C212.946 169 212.93 169 212.915 169C212.899 169 212.884 169 212.869 169C212.853 169 212.838 169 212.823 169C212.808 169 212.793 169 212.778 169C212.763 169 212.748 169 212.733 169C212.718 169 212.703 169 212.689 169C212.674 169 212.659 169 212.645 169C212.63 169 212.616 169 212.601 169C212.587 169 212.573 169 212.558 169C212.544 169 212.53 169 212.516 169C212.502 169 212.488 169 212.474 169C212.46 169 212.446 169 212.433 169C212.419 169 212.405 169 212.392 169C212.378 169 212.365 169 212.351 169C212.338 169 212.324 169 212.311 169C212.298 169 212.285 169 212.272 169C212.258 169 212.245 169 212.232 169C212.22 169 212.207 169 212.194 169C212.181 169 212.168 169 212.156 169C212.143 169 212.131 169 212.118 169C212.106 169 212.093 169 212.081 169C212.069 169 212.057 169 212.044 169C212.032 169 212.02 169 212.008 169C211.996 169 211.984 169 211.973 169C211.961 169 211.949 169 211.938 169C211.926 169 211.914 169 211.903 169C211.891 169 211.88 169 211.869 169C211.858 169 211.846 169 211.835 169C211.824 169 211.813 169 211.802 169C211.791 169 211.78 169 211.769 169C211.759 169 211.748 169 211.737 169C211.727 169 211.716 169 211.706 169C211.695 169 211.685 169 211.675 169C211.664 169 211.654 169 211.644 169C211.634 169 211.624 169 211.614 169C211.604 169 211.594 169 211.584 169C211.575 169 211.565 169 211.555 169C211.546 169 211.536 169 211.527 169C211.517 169 211.508 169 211.499 169C211.49 169 211.48 169 211.471 169C211.462 169 211.453 169 211.444 169C211.435 169 211.427 169 211.418 169V173ZM257.277 173L272.629 187.456L275.371 184.544L260.019 170.088L257.277 173ZM257.287 173C257.287 173 257.286 173 257.285 173C257.285 173 257.283 173 257.282 172.999C257.28 172.999 257.277 172.998 257.275 172.997C257.272 172.996 257.271 172.996 257.271 172.996C257.271 172.996 257.273 172.997 257.277 173L260.019 170.088C259.284 169.396 258.316 169 257.287 169V173Z" fill="url(#paint0_linear_3345_38851)"/>
</g>
<rect x="17" y="36.3428" width="134" height="61" rx="8" fill="#2E2E2E"/>
<path d="M33.82 52.3428H32.8296V48.926L30.0126 44.4032H31.1405L33.3083 47.9686H33.3413L35.5091 44.4032H36.6371L33.82 48.926V52.3428ZM38.7224 52.4418C37.1378 52.4418 36.0704 51.3029 36.0704 49.4817C36.0704 47.655 37.1378 46.5216 38.7224 46.5216C40.3015 46.5216 41.3689 47.655 41.3689 49.4817C41.3689 51.3029 40.3015 52.4418 38.7224 52.4418ZM38.7224 51.6C39.7348 51.6 40.395 50.8297 40.395 49.4817C40.395 48.1337 39.7348 47.3634 38.7224 47.3634C37.71 47.3634 37.0442 48.1337 37.0442 49.4817C37.0442 50.8297 37.71 51.6 38.7224 51.6ZM47.036 46.6206V52.3428H46.1282V51.4129H46.1062C45.7651 52.0732 45.1708 52.4418 44.2905 52.4418C43.0415 52.4418 42.3097 51.633 42.3097 50.3345V46.6206H43.2671V50.1639C43.2671 51.0938 43.7018 51.5945 44.5876 51.5945C45.5175 51.5945 46.0787 50.9562 46.0787 49.9824V46.6206H47.036ZM48.2795 52.3428V46.6206H49.1819V47.5559H49.2039C49.3909 46.9232 49.9191 46.5216 50.5904 46.5216C50.7555 46.5216 50.8985 46.5491 50.9755 46.5601V47.4899C50.8985 47.4624 50.6949 47.4349 50.4638 47.4349C49.7211 47.4349 49.2369 47.9686 49.2369 48.7774V52.3428H48.2795ZM56.8463 46.5216C58.3043 46.5216 59.2947 47.688 59.2947 49.4817C59.2947 51.2754 58.3098 52.4418 56.8683 52.4418C56.0485 52.4418 55.3882 52.0402 55.0471 51.4129H55.0251V54.252H54.0677V46.6206H54.9756V47.589H54.9976C55.3497 46.9452 56.0155 46.5216 56.8463 46.5216ZM56.6592 51.6C57.6771 51.6 58.3153 50.7802 58.3153 49.4817C58.3153 48.1887 57.6771 47.3634 56.6592 47.3634C55.6798 47.3634 55.0196 48.2107 55.0196 49.4817C55.0196 50.7582 55.6798 51.6 56.6592 51.6ZM60.2631 52.3428V46.6206H61.1654V47.5559H61.1874C61.3745 46.9232 61.9027 46.5216 62.574 46.5216C62.739 46.5216 62.8821 46.5491 62.9591 46.5601V47.4899C62.8821 47.4624 62.6785 47.4349 62.4474 47.4349C61.7046 47.4349 61.2204 47.9686 61.2204 48.7774V52.3428H60.2631ZM63.7899 52.3428V46.6206H64.7473V52.3428H63.7899ZM64.2686 45.6577C63.944 45.6577 63.6744 45.3881 63.6744 45.0635C63.6744 44.7334 63.944 44.4693 64.2686 44.4693C64.5987 44.4693 64.8683 44.7334 64.8683 45.0635C64.8683 45.3881 64.5987 45.6577 64.2686 45.6577ZM70.7941 48.4968H69.8587C69.7212 47.8751 69.237 47.3634 68.3952 47.3634C67.4048 47.3634 66.7335 48.1832 66.7335 49.4817C66.7335 50.8132 67.4158 51.6 68.4062 51.6C69.1875 51.6 69.6992 51.1873 69.8642 50.4996H70.8051C70.6565 51.6385 69.6992 52.4418 68.4007 52.4418C66.8161 52.4418 65.7597 51.3249 65.7597 49.4817C65.7597 47.677 66.8106 46.5216 68.3897 46.5216C69.8202 46.5216 70.673 47.4679 70.7941 48.4968ZM73.9798 47.3524C73.083 47.3524 72.4557 48.0401 72.3952 48.992H75.5039C75.4819 48.0346 74.8821 47.3524 73.9798 47.3524ZM75.4819 50.7031H76.4227C76.2577 51.7045 75.2893 52.4418 74.0403 52.4418C72.4007 52.4418 71.4048 51.3029 71.4048 49.5037C71.4048 47.7265 72.4172 46.5216 73.9963 46.5216C75.5424 46.5216 76.4943 47.644 76.4943 49.3771V49.7403H72.3897V49.7953C72.3897 50.8902 73.0334 51.611 74.0623 51.611C74.7886 51.611 75.3223 51.2424 75.4819 50.7031Z" fill="white" fill-opacity="0.6"/>
<path d="M36.252 82.5869C32.7949 82.5869 30.7148 79.7842 30.7148 75.3018V75.2822C30.7148 70.7998 32.7949 68.0068 36.252 68.0068C39.6992 68.0068 41.7891 70.7998 41.7891 75.2822V75.3018C41.7891 79.7842 39.6992 82.5869 36.252 82.5869ZM36.252 80.5264C38.1465 80.5264 39.25 78.5537 39.25 75.3018V75.2822C39.25 72.0303 38.1465 70.0771 36.252 70.0771C34.3477 70.0771 33.2539 72.0303 33.2539 75.2822V75.3018C33.2539 78.5537 34.3477 80.5264 36.252 80.5264ZM42.5703 85.2236L43.3418 80.0479H45.6953L44.2695 85.2236H42.5703ZM54.6992 82.3428V79.6377H47.668V77.4893L53.5176 68.251H57.1016V77.5674H59.0156V79.6377H57.1016V82.3428H54.6992ZM49.9336 77.626H54.7383V70.1553H54.6797L49.9336 77.5576V77.626ZM65.6953 82.5869C62.5996 82.5869 60.5879 80.9268 60.3926 78.5635L60.3828 78.4463H62.7949L62.8047 78.5537C62.9414 79.6963 64.0352 80.5264 65.6855 80.5264C67.3164 80.5264 68.4004 79.6279 68.4004 78.3486V78.3291C68.4004 76.8447 67.3066 76.0244 65.5098 76.0244H63.8398V74.1494H65.4512C67.0039 74.1494 68.0391 73.2705 68.0391 72.04V72.0205C68.0391 70.751 67.1797 70.0088 65.666 70.0088C64.1816 70.0088 63.166 70.7803 63.0391 71.9912L63.0293 72.0889H60.6855L60.6953 71.9717C60.9004 69.5889 62.8242 68.0068 65.666 68.0068C68.5762 68.0068 70.4609 69.501 70.4609 71.6885V71.708C70.4609 73.4561 69.1914 74.6182 67.502 74.9697V75.0186C69.582 75.2139 70.959 76.4443 70.959 78.3975V78.417C70.959 80.8682 68.8105 82.5869 65.6953 82.5869ZM82.9512 82.5869C79.377 82.5869 77.1504 80.4873 77.1504 77.3721V68.251H79.6699V77.167C79.6699 79.1201 80.8613 80.3994 82.9512 80.3994C85.041 80.3994 86.2227 79.1201 86.2227 77.167V68.251H88.7324V77.3721C88.7324 80.4873 86.5352 82.5869 82.9512 82.5869ZM96.1836 82.5869C92.9512 82.5869 90.8223 81.0635 90.6562 78.5342L90.6465 78.3877H93.0586L93.0781 78.5049C93.2637 79.7158 94.5039 80.4678 96.2715 80.4678C98.0488 80.4678 99.1621 79.6768 99.1621 78.4658V78.4561C99.1621 77.4014 98.4297 76.835 96.6133 76.4541L95.0996 76.1416C92.3262 75.5654 90.959 74.2764 90.959 72.1768V72.167C90.9688 69.6865 93.1465 68.0068 96.1836 68.0068C99.2598 68.0068 101.271 69.6279 101.418 72.04L101.428 72.2061H99.0156L98.9961 72.0889C98.8301 70.8584 97.7461 70.126 96.1641 70.126C94.5137 70.1357 93.4883 70.9072 93.4883 72.0303V72.04C93.4883 73.0361 94.2598 73.6221 95.959 73.9736L97.4824 74.2861C100.412 74.8916 101.691 76.083 101.691 78.2803V78.29C101.691 80.917 99.6211 82.5869 96.1836 82.5869ZM103.576 82.3428V68.251H108.723C112.922 68.251 115.422 70.79 115.422 75.2432V75.2627C115.422 79.7256 112.941 82.3428 108.723 82.3428H103.576ZM106.096 80.2139H108.459C111.291 80.2139 112.854 78.4854 112.854 75.2725V75.2529C112.854 72.1084 111.262 70.3799 108.459 70.3799H106.096V80.2139ZM120.051 82.3428V70.3701H115.832V68.251H126.77V70.3701H122.561V82.3428H120.051Z" fill="white"/>
<rect x="136" y="76" width="138" height="61" rx="8" fill="#2E2E2E"/>
<path d="M149.761 92H148.77V84.0605H153.59V84.9518H149.761V87.6809H153.277V88.5612H149.761V92ZM154.625 92V86.2778H155.582V92H154.625ZM155.103 85.315C154.779 85.315 154.509 85.0454 154.509 84.7207C154.509 84.3906 154.779 84.1265 155.103 84.1265C155.433 84.1265 155.703 84.3906 155.703 84.7207C155.703 85.0454 155.433 85.315 155.103 85.315ZM156.875 92V86.2778H157.777V87.1912H157.799C158.118 86.5749 158.729 86.1788 159.615 86.1788C160.869 86.1788 161.596 86.9876 161.596 88.2861V92H160.638V88.4567C160.638 87.5323 160.204 87.0261 159.323 87.0261C158.421 87.0261 157.832 87.6643 157.832 88.6327V92H156.875ZM164.704 91.2847C165.607 91.2847 166.3 90.652 166.3 89.8267V89.359L164.77 89.4525C164 89.502 163.56 89.8432 163.56 90.3824C163.56 90.9271 164.017 91.2847 164.704 91.2847ZM164.49 92.099C163.351 92.099 162.586 91.4113 162.586 90.3824C162.586 89.403 163.34 88.7868 164.66 88.7097L166.3 88.6162V88.1375C166.3 87.4388 165.838 87.0206 165.045 87.0206C164.308 87.0206 163.846 87.3672 163.725 87.9284H162.801C162.867 86.9381 163.714 86.1788 165.068 86.1788C166.41 86.1788 167.257 86.9051 167.257 88.044V92H166.349V91.0151H166.327C165.986 91.6699 165.26 92.099 164.49 92.099ZM168.523 92V84.0605H169.48V92H168.523ZM175.863 86.1788C177.321 86.1788 178.311 87.3452 178.311 89.1389C178.311 90.9326 177.326 92.099 175.885 92.099C175.065 92.099 174.405 91.6974 174.063 91.0701H174.041V93.9092H173.084V86.2778H173.992V87.2462H174.014C174.366 86.6024 175.032 86.1788 175.863 86.1788ZM175.676 91.2572C176.693 91.2572 177.332 90.4374 177.332 89.1389C177.332 87.8459 176.693 87.0206 175.676 87.0206C174.696 87.0206 174.036 87.8679 174.036 89.1389C174.036 90.4154 174.696 91.2572 175.676 91.2572ZM179.279 92V86.2778H180.182V87.2132H180.204C180.391 86.5804 180.919 86.1788 181.59 86.1788C181.755 86.1788 181.898 86.2063 181.975 86.2173V87.1472C181.898 87.1196 181.695 87.0921 181.464 87.0921C180.721 87.0921 180.237 87.6258 180.237 88.4346V92H179.279ZM182.806 92V86.2778H183.764V92H182.806ZM183.285 85.315C182.96 85.315 182.691 85.0454 182.691 84.7207C182.691 84.3906 182.96 84.1265 183.285 84.1265C183.615 84.1265 183.885 84.3906 183.885 84.7207C183.885 85.0454 183.615 85.315 183.285 85.315ZM189.81 88.154H188.875C188.738 87.5323 188.253 87.0206 187.412 87.0206C186.421 87.0206 185.75 87.8404 185.75 89.1389C185.75 90.4704 186.432 91.2572 187.423 91.2572C188.204 91.2572 188.716 90.8446 188.881 90.1568H189.821C189.673 91.2957 188.716 92.099 187.417 92.099C185.832 92.099 184.776 90.9821 184.776 89.1389C184.776 87.3342 185.827 86.1788 187.406 86.1788C188.837 86.1788 189.689 87.1251 189.81 88.154ZM192.996 87.0096C192.099 87.0096 191.472 87.6974 191.412 88.6492H194.52C194.498 87.6919 193.898 87.0096 192.996 87.0096ZM194.498 90.3604H195.439C195.274 91.3618 194.306 92.099 193.057 92.099C191.417 92.099 190.421 90.9601 190.421 89.1609C190.421 87.3837 191.434 86.1788 193.013 86.1788C194.559 86.1788 195.511 87.3012 195.511 89.0344V89.3975H191.406V89.4525C191.406 90.5474 192.05 91.2682 193.079 91.2682C193.805 91.2682 194.339 90.8996 194.498 90.3604Z" fill="#ABABAB"/>
<path d="M154.377 122.244C150.92 122.244 148.84 119.441 148.84 114.959V114.939C148.84 110.457 150.92 107.664 154.377 107.664C157.824 107.664 159.914 110.457 159.914 114.939V114.959C159.914 119.441 157.824 122.244 154.377 122.244ZM154.377 120.184C156.271 120.184 157.375 118.211 157.375 114.959V114.939C157.375 111.688 156.271 109.734 154.377 109.734C152.473 109.734 151.379 111.688 151.379 114.939V114.959C151.379 118.211 152.473 120.184 154.377 120.184ZM160.695 124.881L161.467 119.705H163.82L162.395 124.881H160.695ZM170.891 122.244C167.795 122.244 165.783 120.584 165.588 118.221L165.578 118.104H167.99L168 118.211C168.137 119.354 169.23 120.184 170.881 120.184C172.512 120.184 173.596 119.285 173.596 118.006V117.986C173.596 116.502 172.502 115.682 170.705 115.682H169.035V113.807H170.646C172.199 113.807 173.234 112.928 173.234 111.697V111.678C173.234 110.408 172.375 109.666 170.861 109.666C169.377 109.666 168.361 110.438 168.234 111.648L168.225 111.746H165.881L165.891 111.629C166.096 109.246 168.02 107.664 170.861 107.664C173.771 107.664 175.656 109.158 175.656 111.346V111.365C175.656 113.113 174.387 114.275 172.697 114.627V114.676C174.777 114.871 176.154 116.102 176.154 118.055V118.074C176.154 120.525 174.006 122.244 170.891 122.244ZM183.586 122.244C180.471 122.244 177.893 120.066 177.893 115.125V115.105C177.893 110.447 180.051 107.664 183.645 107.664C186.252 107.664 188.195 109.168 188.645 111.297L188.664 111.404H186.164L186.125 111.316C185.754 110.35 184.885 109.725 183.625 109.725C181.359 109.725 180.412 111.893 180.314 114.559C180.305 114.705 180.305 114.852 180.305 115.008H180.354C180.91 113.719 182.316 112.742 184.23 112.742C186.945 112.742 188.85 114.695 188.85 117.342V117.361C188.85 120.203 186.623 122.244 183.586 122.244ZM180.734 117.4C180.734 118.963 181.975 120.184 183.547 120.184C185.119 120.184 186.369 118.973 186.369 117.449V117.43C186.369 115.828 185.188 114.686 183.576 114.686C181.965 114.686 180.734 115.818 180.734 117.391V117.4ZM200.9 122.244C197.326 122.244 195.1 120.145 195.1 117.029V107.908H197.619V116.824C197.619 118.777 198.811 120.057 200.9 120.057C202.99 120.057 204.172 118.777 204.172 116.824V107.908H206.682V117.029C206.682 120.145 204.484 122.244 200.9 122.244ZM214.133 122.244C210.9 122.244 208.771 120.721 208.605 118.191L208.596 118.045H211.008L211.027 118.162C211.213 119.373 212.453 120.125 214.221 120.125C215.998 120.125 217.111 119.334 217.111 118.123V118.113C217.111 117.059 216.379 116.492 214.562 116.111L213.049 115.799C210.275 115.223 208.908 113.934 208.908 111.834V111.824C208.918 109.344 211.096 107.664 214.133 107.664C217.209 107.664 219.221 109.285 219.367 111.697L219.377 111.863H216.965L216.945 111.746C216.779 110.516 215.695 109.783 214.113 109.783C212.463 109.793 211.438 110.564 211.438 111.688V111.697C211.438 112.693 212.209 113.279 213.908 113.631L215.432 113.943C218.361 114.549 219.641 115.74 219.641 117.938V117.947C219.641 120.574 217.57 122.244 214.133 122.244ZM221.525 122V107.908H226.672C230.871 107.908 233.371 110.447 233.371 114.9V114.92C233.371 119.383 230.891 122 226.672 122H221.525ZM224.045 119.871H226.408C229.24 119.871 230.803 118.143 230.803 114.93V114.91C230.803 111.766 229.211 110.037 226.408 110.037H224.045V119.871ZM238 122V110.027H233.781V107.908H244.719V110.027H240.51V122H238Z" fill="white"/>
<rect x="22" y="125" width="152" height="61" rx="8" fill="url(#paint1_radial_3345_38851)" fill-opacity="0.85"/>
<path d="M34.7703 141V133.06H37.7469C39.2765 133.06 40.2779 133.996 40.2779 135.426V135.437C40.2779 136.538 39.6727 137.391 38.6823 137.704L40.52 141H39.359L37.6589 137.858H35.7607V141H34.7703ZM35.7607 136.983H37.6589C38.6768 136.983 39.2545 136.433 39.2545 135.459V135.448C39.2545 134.502 38.6328 133.941 37.6149 133.941H35.7607V136.983ZM43.7332 141.11C42.0881 141.11 41.0977 139.96 41.0977 138.161V138.155C41.0977 136.384 42.1101 135.168 43.6727 135.168C45.2353 135.168 46.1871 136.329 46.1871 138.045V138.398H42.0661C42.0881 139.575 42.7373 140.263 43.7552 140.263C44.4815 140.263 44.9932 139.9 45.1583 139.41L45.1748 139.36H46.1156L46.1046 139.415C45.9175 140.362 44.9822 141.11 43.7332 141.11ZM43.6672 136.015C42.8364 136.015 42.1871 136.582 42.0826 137.649H45.2133C45.1197 136.538 44.5035 136.015 43.6672 136.015ZM49.0152 141.11C47.9643 141.11 47.4471 140.637 47.4471 139.542V136.07H46.6108V135.278H47.4471V133.732H48.4375V135.278H49.5269V136.07H48.4375V139.536C48.4375 140.147 48.7071 140.318 49.2188 140.318C49.3343 140.318 49.4444 140.301 49.5269 140.296V141.072C49.4059 141.088 49.2023 141.11 49.0152 141.11ZM52.5091 141.11C51.2546 141.11 50.5283 140.296 50.5283 138.992V135.278H51.4857V138.821C51.4857 139.751 51.9203 140.263 52.8007 140.263C53.703 140.263 54.2917 139.619 54.2917 138.645V135.278H55.2491V141H54.2917V140.186H54.2697C53.9616 140.719 53.3784 141.11 52.5091 141.11ZM56.4981 141V135.278H57.4554V136.246H57.4774C57.67 135.586 58.1652 135.168 58.809 135.168C58.974 135.168 59.1171 135.195 59.1941 135.206V136.136C59.1171 136.109 58.9135 136.081 58.6824 136.081C57.9396 136.081 57.4554 136.598 57.4554 137.468V141H56.4981ZM59.9754 141V135.278H60.9328V136.092H60.9548C61.2629 135.558 61.8461 135.168 62.7154 135.168C63.9699 135.168 64.6962 135.982 64.6962 137.286V141H63.7388V137.457C63.7388 136.527 63.3042 136.015 62.4238 136.015C61.5215 136.015 60.9328 136.659 60.9328 137.633V141H59.9754Z" fill="#00C414"/>
<path d="M41.4121 166.469V170.805H39.2148V166.469H35.1621V164.301H39.2148V160.033H41.4121V164.301H45.4746V166.469H41.4121ZM50.748 171V159.311H50.6895L47.0469 161.869V159.496L50.7285 156.908H53.2188V171H50.748ZM61.998 171.293C59.9473 171.293 58.2773 170.297 57.3301 168.49C56.666 167.338 56.3242 165.863 56.3242 164.115C56.3242 159.418 58.502 156.615 62.0762 156.615C64.6543 156.615 66.6562 158.148 67.0762 160.424H64.5762C64.2539 159.359 63.2676 158.666 62.0566 158.666C59.9473 158.666 58.707 160.619 58.7266 164.018H58.7754C59.3711 162.641 60.8164 161.723 62.5938 161.723C65.2695 161.723 67.2617 163.695 67.2617 166.371C67.2617 169.232 65.0547 171.293 61.998 171.293ZM61.9785 169.232C63.541 169.232 64.7812 168.002 64.7812 166.449C64.7812 164.857 63.6094 163.695 61.998 163.695C60.377 163.695 59.1758 164.857 59.1758 166.42C59.1758 167.992 60.4062 169.232 61.9785 169.232ZM68.9316 161.088C68.9316 158.49 71.0117 156.625 73.9316 156.625C76.7441 156.625 78.7559 158.344 78.7559 160.629C78.7559 162.309 77.7598 163.578 75.9141 165.443L72.4277 168.891V168.939H78.9707V171H69.0684V169.301L74.2539 164.145C75.8555 162.514 76.2949 161.791 76.2949 160.736C76.2949 159.574 75.25 158.646 73.8535 158.646C72.3887 158.646 71.2949 159.682 71.2949 161.078V161.117H68.9316V161.088ZM82.5156 171.107C81.7246 171.107 81.1094 170.492 81.1094 169.701C81.1094 168.92 81.7246 168.295 82.5156 168.295C83.2969 168.295 83.9121 168.92 83.9121 169.701C83.9121 170.492 83.2969 171.107 82.5156 171.107ZM88.7363 171V159.311H88.6777L85.0352 161.869V159.496L88.7168 156.908H91.207V171H88.7363ZM97.75 164.721V162.826H99.4492C100.895 162.826 101.881 161.938 101.881 160.678C101.881 159.447 101.021 158.627 99.4395 158.627C97.9844 158.627 97.0078 159.477 96.9102 160.795H94.5664C94.7031 158.266 96.6465 156.625 99.5566 156.625C102.33 156.625 104.303 158.139 104.303 160.336C104.303 162.084 103.131 163.344 101.393 163.646V163.705C103.502 163.861 104.869 165.15 104.869 167.113C104.869 169.604 102.604 171.283 99.5273 171.283C96.4316 171.283 94.4199 169.584 94.293 167.074H96.6953C96.8125 168.363 97.8672 169.223 99.5469 169.223C101.168 169.223 102.311 168.314 102.311 167.016C102.311 165.59 101.236 164.721 99.4883 164.721H97.75ZM113.561 156.908V165.805C113.561 167.729 114.742 169.037 116.832 169.037C118.922 169.037 120.113 167.729 120.113 165.805V156.908H122.623V166.029C122.623 169.105 120.406 171.234 116.832 171.234C113.268 171.234 111.041 169.105 111.041 166.029V156.908H113.561ZM124.547 167.035H126.988C127.145 168.334 128.443 169.184 130.162 169.184C131.861 169.184 133.043 168.344 133.043 167.172C133.043 166.156 132.32 165.57 130.543 165.15L128.717 164.721C126.119 164.125 124.889 162.875 124.889 160.863C124.889 158.363 127.066 156.674 130.133 156.674C133.238 156.674 135.289 158.354 135.348 160.834H132.945C132.828 159.516 131.725 158.725 130.113 158.725C128.521 158.725 127.447 159.506 127.447 160.678C127.447 161.615 128.16 162.162 129.889 162.572L131.51 162.943C134.371 163.598 135.582 164.779 135.582 166.879C135.582 169.555 133.434 171.234 130.025 171.234C126.783 171.234 124.654 169.633 124.547 167.035ZM137.486 156.908H142.633C146.842 156.908 149.332 159.457 149.332 163.92C149.332 168.383 146.852 171 142.633 171H137.486V156.908ZM140.006 159.037V168.871H142.369C145.201 168.871 146.764 167.143 146.764 163.93C146.764 160.775 145.182 159.037 142.369 159.037H140.006ZM156.471 171H153.961V159.037H149.742V156.908H160.68V159.037H156.471V171Z" fill="white"/>
<defs>
<linearGradient id="paint0_linear_3345_38851" x1="249.665" y1="169.285" x2="-4.97759" y2="85.5623" gradientUnits="userSpaceOnUse">
<stop offset="0.57" stop-color="#4724FE"/>
<stop offset="1" stop-color="#2A1698" stop-opacity="0"/>
</linearGradient>
<radialGradient id="paint1_radial_3345_38851" cx="0" cy="0" r="1" gradientUnits="userSpaceOnUse" gradientTransform="translate(208.427 85.35) rotate(153.709) scale(201.658 165.735)">
<stop offset="0.767088" stop-color="#3F23FE"/>
</radialGradient>
<clipPath id="clip0_3345_38851">
<path d="M0 25H274V177C274 190.255 263.255 201 250 201H24C10.7452 201 0 190.255 0 177V25Z" fill="white"/>
</clipPath>
</defs>
</svg>
